<?xml version="1.0" encoding="utf-8" standalone="no"?>
<!DOCTYPE svg PUBLIC "-//W3C//DTD SVG 1.1//EN"
  "http://www.w3.org/Graphics/SVG/1.1/DTD/svg11.dtd">
<!-- Created with matplotlib (https://matplotlib.org/) -->
<svg height="267.599687pt" version="1.1" viewBox="0 0 391.807187 267.599687" width="391.807187pt" xmlns="http://www.w3.org/2000/svg" xmlns:xlink="http://www.w3.org/1999/xlink">
 <defs>
  <style type="text/css">
*{stroke-linecap:butt;stroke-linejoin:round;}
  </style>
 </defs>
 <g id="figure_1">
  <g id="patch_1">
   <path d="M 0 267.599687 
L 391.807187 267.599687 
L 391.807187 0 
L 0 0 
z
" style="fill:#ffffff;"/>
  </g>
  <g id="axes_1">
   <g id="patch_2">
    <path d="M 49.807187 224.64 
L 384.607188 224.64 
L 384.607188 7.2 
L 49.807187 7.2 
z
" style="fill:#ffffff;"/>
   </g>
   <g id="matplotlib.axis_1">
    <g id="xtick_1">
     <g id="line2d_1">
      <path clip-path="url(#pccab951e99)" d="M 63.676631 224.64 
L 63.676631 7.2 
" style="fill:none;stroke:#cccccc;stroke-linecap:round;"/>
     </g>
     <g id="text_1">
      <!-- 0.2 -->
      <defs>
       <path d="M 31.78125 66.40625 
Q 24.171875 66.40625 20.328125 58.90625 
Q 16.5 51.421875 16.5 36.375 
Q 16.5 21.390625 20.328125 13.890625 
Q 24.171875 6.390625 31.78125 6.390625 
Q 39.453125 6.390625 43.28125 13.890625 
Q 47.125 21.390625 47.125 36.375 
Q 47.125 51.421875 43.28125 58.90625 
Q 39.453125 66.40625 31.78125 66.40625 
z
M 31.78125 74.21875 
Q 44.046875 74.21875 50.515625 64.515625 
Q 56.984375 54.828125 56.984375 36.375 
Q 56.984375 17.96875 50.515625 8.265625 
Q 44.046875 -1.421875 31.78125 -1.421875 
Q 19.53125 -1.421875 13.0625 8.265625 
Q 6.59375 17.96875 6.59375 36.375 
Q 6.59375 54.828125 13.0625 64.515625 
Q 19.53125 74.21875 31.78125 74.21875 
z
" id="DejaVuSans-48"/>
       <path d="M 10.6875 12.40625 
L 21 12.40625 
L 21 0 
L 10.6875 0 
z
" id="DejaVuSans-46"/>
       <path d="M 19.1875 8.296875 
L 53.609375 8.296875 
L 53.609375 0 
L 7.328125 0 
L 7.328125 8.296875 
Q 12.9375 14.109375 22.625 23.890625 
Q 32.328125 33.6875 34.8125 36.53125 
Q 39.546875 41.84375 41.421875 45.53125 
Q 43.3125 49.21875 43.3125 52.78125 
Q 43.3125 58.59375 39.234375 62.25 
Q 35.15625 65.921875 28.609375 65.921875 
Q 23.96875 65.921875 18.8125 64.3125 
Q 13.671875 62.703125 7.8125 59.421875 
L 7.8125 69.390625 
Q 13.765625 71.78125 18.9375 73 
Q 24.125 74.21875 28.421875 74.21875 
Q 39.75 74.21875 46.484375 68.546875 
Q 53.21875 62.890625 53.21875 53.421875 
Q 53.21875 48.921875 51.53125 44.890625 
Q 49.859375 40.875 45.40625 35.40625 
Q 44.1875 33.984375 37.640625 27.21875 
Q 31.109375 20.453125 19.1875 8.296875 
z
" id="DejaVuSans-50"/>
      </defs>
      <g style="fill:#262626;" transform="translate(54.929912 242.498281)scale(0.11 -0.11)">
       <use xlink:href="#DejaVuSans-48"/>
       <use x="63.623047" xlink:href="#DejaVuSans-46"/>
       <use x="95.410156" xlink:href="#DejaVuSans-50"/>
      </g>
     </g>
    </g>
    <g id="xtick_2">
     <g id="line2d_2">
      <path clip-path="url(#pccab951e99)" d="M 105.165543 224.64 
L 105.165543 7.2 
" style="fill:none;stroke:#cccccc;stroke-linecap:round;"/>
     </g>
     <g id="text_2">
      <!-- 0.4 -->
      <defs>
       <path d="M 37.796875 64.3125 
L 12.890625 25.390625 
L 37.796875 25.390625 
z
M 35.203125 72.90625 
L 47.609375 72.90625 
L 47.609375 25.390625 
L 58.015625 25.390625 
L 58.015625 17.1875 
L 47.609375 17.1875 
L 47.609375 0 
L 37.796875 0 
L 37.796875 17.1875 
L 4.890625 17.1875 
L 4.890625 26.703125 
z
" id="DejaVuSans-52"/>
      </defs>
      <g style="fill:#262626;" transform="translate(96.418824 242.498281)scale(0.11 -0.11)">
       <use xlink:href="#DejaVuSans-48"/>
       <use x="63.623047" xlink:href="#DejaVuSans-46"/>
       <use x="95.410156" xlink:href="#DejaVuSans-52"/>
      </g>
     </g>
    </g>
    <g id="xtick_3">
     <g id="line2d_3">
      <path clip-path="url(#pccab951e99)" d="M 146.654455 224.64 
L 146.654455 7.2 
" style="fill:none;stroke:#cccccc;stroke-linecap:round;"/>
     </g>
     <g id="text_3">
      <!-- 0.6 -->
      <defs>
       <path d="M 33.015625 40.375 
Q 26.375 40.375 22.484375 35.828125 
Q 18.609375 31.296875 18.609375 23.390625 
Q 18.609375 15.53125 22.484375 10.953125 
Q 26.375 6.390625 33.015625 6.390625 
Q 39.65625 6.390625 43.53125 10.953125 
Q 47.40625 15.53125 47.40625 23.390625 
Q 47.40625 31.296875 43.53125 35.828125 
Q 39.65625 40.375 33.015625 40.375 
z
M 52.59375 71.296875 
L 52.59375 62.3125 
Q 48.875 64.0625 45.09375 64.984375 
Q 41.3125 65.921875 37.59375 65.921875 
Q 27.828125 65.921875 22.671875 59.328125 
Q 17.53125 52.734375 16.796875 39.40625 
Q 19.671875 43.65625 24.015625 45.921875 
Q 28.375 48.1875 33.59375 48.1875 
Q 44.578125 48.1875 50.953125 41.515625 
Q 57.328125 34.859375 57.328125 23.390625 
Q 57.328125 12.15625 50.6875 5.359375 
Q 44.046875 -1.421875 33.015625 -1.421875 
Q 20.359375 -1.421875 13.671875 8.265625 
Q 6.984375 17.96875 6.984375 36.375 
Q 6.984375 53.65625 15.1875 63.9375 
Q 23.390625 74.21875 37.203125 74.21875 
Q 40.921875 74.21875 44.703125 73.484375 
Q 48.484375 72.75 52.59375 71.296875 
z
" id="DejaVuSans-54"/>
      </defs>
      <g style="fill:#262626;" transform="translate(137.907736 242.498281)scale(0.11 -0.11)">
       <use xlink:href="#DejaVuSans-48"/>
       <use x="63.623047" xlink:href="#DejaVuSans-46"/>
       <use x="95.410156" xlink:href="#DejaVuSans-54"/>
      </g>
     </g>
    </g>
    <g id="xtick_4">
     <g id="line2d_4">
      <path clip-path="url(#pccab951e99)" d="M 188.143366 224.64 
L 188.143366 7.2 
" style="fill:none;stroke:#cccccc;stroke-linecap:round;"/>
     </g>
     <g id="text_4">
      <!-- 0.8 -->
      <defs>
       <path d="M 31.78125 34.625 
Q 24.75 34.625 20.71875 30.859375 
Q 16.703125 27.09375 16.703125 20.515625 
Q 16.703125 13.921875 20.71875 10.15625 
Q 24.75 6.390625 31.78125 6.390625 
Q 38.8125 6.390625 42.859375 10.171875 
Q 46.921875 13.96875 46.921875 20.515625 
Q 46.921875 27.09375 42.890625 30.859375 
Q 38.875 34.625 31.78125 34.625 
z
M 21.921875 38.8125 
Q 15.578125 40.375 12.03125 44.71875 
Q 8.5 49.078125 8.5 55.328125 
Q 8.5 64.0625 14.71875 69.140625 
Q 20.953125 74.21875 31.78125 74.21875 
Q 42.671875 74.21875 48.875 69.140625 
Q 55.078125 64.0625 55.078125 55.328125 
Q 55.078125 49.078125 51.53125 44.71875 
Q 48 40.375 41.703125 38.8125 
Q 48.828125 37.15625 52.796875 32.3125 
Q 56.78125 27.484375 56.78125 20.515625 
Q 56.78125 9.90625 50.3125 4.234375 
Q 43.84375 -1.421875 31.78125 -1.421875 
Q 19.734375 -1.421875 13.25 4.234375 
Q 6.78125 9.90625 6.78125 20.515625 
Q 6.78125 27.484375 10.78125 32.3125 
Q 14.796875 37.15625 21.921875 38.8125 
z
M 18.3125 54.390625 
Q 18.3125 48.734375 21.84375 45.5625 
Q 25.390625 42.390625 31.78125 42.390625 
Q 38.140625 42.390625 41.71875 45.5625 
Q 45.3125 48.734375 45.3125 54.390625 
Q 45.3125 60.0625 41.71875 63.234375 
Q 38.140625 66.40625 31.78125 66.40625 
Q 25.390625 66.40625 21.84375 63.234375 
Q 18.3125 60.0625 18.3125 54.390625 
z
" id="DejaVuSans-56"/>
      </defs>
      <g style="fill:#262626;" transform="translate(179.396648 242.498281)scale(0.11 -0.11)">
       <use xlink:href="#DejaVuSans-48"/>
       <use x="63.623047" xlink:href="#DejaVuSans-46"/>
       <use x="95.410156" xlink:href="#DejaVuSans-56"/>
      </g>
     </g>
    </g>
    <g id="xtick_5">
     <g id="line2d_5">
      <path clip-path="url(#pccab951e99)" d="M 229.632278 224.64 
L 229.632278 7.2 
" style="fill:none;stroke:#cccccc;stroke-linecap:round;"/>
     </g>
     <g id="text_5">
      <!-- 1.0 -->
      <defs>
       <path d="M 12.40625 8.296875 
L 28.515625 8.296875 
L 28.515625 63.921875 
L 10.984375 60.40625 
L 10.984375 69.390625 
L 28.421875 72.90625 
L 38.28125 72.90625 
L 38.28125 8.296875 
L 54.390625 8.296875 
L 54.390625 0 
L 12.40625 0 
z
" id="DejaVuSans-49"/>
      </defs>
      <g style="fill:#262626;" transform="translate(220.88556 242.498281)scale(0.11 -0.11)">
       <use xlink:href="#DejaVuSans-49"/>
       <use x="63.623047" xlink:href="#DejaVuSans-46"/>
       <use x="95.410156" xlink:href="#DejaVuSans-48"/>
      </g>
     </g>
    </g>
    <g id="xtick_6">
     <g id="line2d_6">
      <path clip-path="url(#pccab951e99)" d="M 271.12119 224.64 
L 271.12119 7.2 
" style="fill:none;stroke:#cccccc;stroke-linecap:round;"/>
     </g>
     <g id="text_6">
      <!-- 1.2 -->
      <g style="fill:#262626;" transform="translate(262.374471 242.498281)scale(0.11 -0.11)">
       <use xlink:href="#DejaVuSans-49"/>
       <use x="63.623047" xlink:href="#DejaVuSans-46"/>
       <use x="95.410156" xlink:href="#DejaVuSans-50"/>
      </g>
     </g>
    </g>
    <g id="xtick_7">
     <g id="line2d_7">
      <path clip-path="url(#pccab951e99)" d="M 312.610102 224.64 
L 312.610102 7.2 
" style="fill:none;stroke:#cccccc;stroke-linecap:round;"/>
     </g>
     <g id="text_7">
      <!-- 1.4 -->
      <g style="fill:#262626;" transform="translate(303.863383 242.498281)scale(0.11 -0.11)">
       <use xlink:href="#DejaVuSans-49"/>
       <use x="63.623047" xlink:href="#DejaVuSans-46"/>
       <use x="95.410156" xlink:href="#DejaVuSans-52"/>
      </g>
     </g>
    </g>
    <g id="xtick_8">
     <g id="line2d_8">
      <path clip-path="url(#pccab951e99)" d="M 354.099014 224.64 
L 354.099014 7.2 
" style="fill:none;stroke:#cccccc;stroke-linecap:round;"/>
     </g>
     <g id="text_8">
      <!-- 1.6 -->
      <g style="fill:#262626;" transform="translate(345.352295 242.498281)scale(0.11 -0.11)">
       <use xlink:href="#DejaVuSans-49"/>
       <use x="63.623047" xlink:href="#DejaVuSans-46"/>
       <use x="95.410156" xlink:href="#DejaVuSans-54"/>
      </g>
     </g>
    </g>
    <g id="text_9">
     <!-- LightGBM -->
     <defs>
      <path d="M 9.8125 72.90625 
L 19.671875 72.90625 
L 19.671875 8.296875 
L 55.171875 8.296875 
L 55.171875 0 
L 9.8125 0 
z
" id="DejaVuSans-76"/>
      <path d="M 9.421875 54.6875 
L 18.40625 54.6875 
L 18.40625 0 
L 9.421875 0 
z
M 9.421875 75.984375 
L 18.40625 75.984375 
L 18.40625 64.59375 
L 9.421875 64.59375 
z
" id="DejaVuSans-105"/>
      <path d="M 45.40625 27.984375 
Q 45.40625 37.75 41.375 43.109375 
Q 37.359375 48.484375 30.078125 48.484375 
Q 22.859375 48.484375 18.828125 43.109375 
Q 14.796875 37.75 14.796875 27.984375 
Q 14.796875 18.265625 18.828125 12.890625 
Q 22.859375 7.515625 30.078125 7.515625 
Q 37.359375 7.515625 41.375 12.890625 
Q 45.40625 18.265625 45.40625 27.984375 
z
M 54.390625 6.78125 
Q 54.390625 -7.171875 48.1875 -13.984375 
Q 42 -20.796875 29.203125 -20.796875 
Q 24.46875 -20.796875 20.265625 -20.09375 
Q 16.0625 -19.390625 12.109375 -17.921875 
L 12.109375 -9.1875 
Q 16.0625 -11.328125 19.921875 -12.34375 
Q 23.78125 -13.375 27.78125 -13.375 
Q 36.625 -13.375 41.015625 -8.765625 
Q 45.40625 -4.15625 45.40625 5.171875 
L 45.40625 9.625 
Q 42.625 4.78125 38.28125 2.390625 
Q 33.9375 0 27.875 0 
Q 17.828125 0 11.671875 7.65625 
Q 5.515625 15.328125 5.515625 27.984375 
Q 5.515625 40.671875 11.671875 48.328125 
Q 17.828125 56 27.875 56 
Q 33.9375 56 38.28125 53.609375 
Q 42.625 51.21875 45.40625 46.390625 
L 45.40625 54.6875 
L 54.390625 54.6875 
z
" id="DejaVuSans-103"/>
      <path d="M 54.890625 33.015625 
L 54.890625 0 
L 45.90625 0 
L 45.90625 32.71875 
Q 45.90625 40.484375 42.875 44.328125 
Q 39.84375 48.1875 33.796875 48.1875 
Q 26.515625 48.1875 22.3125 43.546875 
Q 18.109375 38.921875 18.109375 30.90625 
L 18.109375 0 
L 9.078125 0 
L 9.078125 75.984375 
L 18.109375 75.984375 
L 18.109375 46.1875 
Q 21.34375 51.125 25.703125 53.5625 
Q 30.078125 56 35.796875 56 
Q 45.21875 56 50.046875 50.171875 
Q 54.890625 44.34375 54.890625 33.015625 
z
" id="DejaVuSans-104"/>
      <path d="M 18.3125 70.21875 
L 18.3125 54.6875 
L 36.8125 54.6875 
L 36.8125 47.703125 
L 18.3125 47.703125 
L 18.3125 18.015625 
Q 18.3125 11.328125 20.140625 9.421875 
Q 21.96875 7.515625 27.59375 7.515625 
L 36.8125 7.515625 
L 36.8125 0 
L 27.59375 0 
Q 17.1875 0 13.234375 3.875 
Q 9.28125 7.765625 9.28125 18.015625 
L 9.28125 47.703125 
L 2.6875 47.703125 
L 2.6875 54.6875 
L 9.28125 54.6875 
L 9.28125 70.21875 
z
" id="DejaVuSans-116"/>
      <path d="M 59.515625 10.40625 
L 59.515625 29.984375 
L 43.40625 29.984375 
L 43.40625 38.09375 
L 69.28125 38.09375 
L 69.28125 6.78125 
Q 63.578125 2.734375 56.6875 0.65625 
Q 49.8125 -1.421875 42 -1.421875 
Q 24.90625 -1.421875 15.25 8.5625 
Q 5.609375 18.5625 5.609375 36.375 
Q 5.609375 54.25 15.25 64.234375 
Q 24.90625 74.21875 42 74.21875 
Q 49.125 74.21875 55.546875 72.453125 
Q 61.96875 70.703125 67.390625 67.28125 
L 67.390625 56.78125 
Q 61.921875 61.421875 55.765625 63.765625 
Q 49.609375 66.109375 42.828125 66.109375 
Q 29.4375 66.109375 22.71875 58.640625 
Q 16.015625 51.171875 16.015625 36.375 
Q 16.015625 21.625 22.71875 14.15625 
Q 29.4375 6.6875 42.828125 6.6875 
Q 48.046875 6.6875 52.140625 7.59375 
Q 56.25 8.5 59.515625 10.40625 
z
" id="DejaVuSans-71"/>
      <path d="M 19.671875 34.8125 
L 19.671875 8.109375 
L 35.5 8.109375 
Q 43.453125 8.109375 47.28125 11.40625 
Q 51.125 14.703125 51.125 21.484375 
Q 51.125 28.328125 47.28125 31.5625 
Q 43.453125 34.8125 35.5 34.8125 
z
M 19.671875 64.796875 
L 19.671875 42.828125 
L 34.28125 42.828125 
Q 41.5 42.828125 45.03125 45.53125 
Q 48.578125 48.25 48.578125 53.8125 
Q 48.578125 59.328125 45.03125 62.0625 
Q 41.5 64.796875 34.28125 64.796875 
z
M 9.8125 72.90625 
L 35.015625 72.90625 
Q 46.296875 72.90625 52.390625 68.21875 
Q 58.5 63.53125 58.5 54.890625 
Q 58.5 48.1875 55.375 44.234375 
Q 52.25 40.28125 46.1875 39.3125 
Q 53.46875 37.75 57.5 32.78125 
Q 61.53125 27.828125 61.53125 20.40625 
Q 61.53125 10.640625 54.890625 5.3125 
Q 48.25 0 35.984375 0 
L 9.8125 0 
z
" id="DejaVuSans-66"/>
      <path d="M 9.8125 72.90625 
L 24.515625 72.90625 
L 43.109375 23.296875 
L 61.8125 72.90625 
L 76.515625 72.90625 
L 76.515625 0 
L 66.890625 0 
L 66.890625 64.015625 
L 48.09375 14.015625 
L 38.1875 14.015625 
L 19.390625 64.015625 
L 19.390625 0 
L 9.8125 0 
z
" id="DejaVuSans-77"/>
     </defs>
     <g style="fill:#262626;" transform="translate(188.290938 257.904062)scale(0.12 -0.12)">
      <use xlink:href="#DejaVuSans-76"/>
      <use x="55.712891" xlink:href="#DejaVuSans-105"/>
      <use x="83.496094" xlink:href="#DejaVuSans-103"/>
      <use x="146.972656" xlink:href="#DejaVuSans-104"/>
      <use x="210.351562" xlink:href="#DejaVuSans-116"/>
      <use x="249.560547" xlink:href="#DejaVuSans-71"/>
      <use x="327.050781" xlink:href="#DejaVuSans-66"/>
      <use x="395.654297" xlink:href="#DejaVuSans-77"/>
     </g>
    </g>
   </g>
   <g id="matplotlib.axis_2">
    <g id="ytick_1">
     <g id="line2d_9">
      <path clip-path="url(#pccab951e99)" d="M 49.807187 212.884116 
L 384.607188 212.884116 
" style="fill:none;stroke:#cccccc;stroke-linecap:round;"/>
     </g>
     <g id="text_10">
      <!-- 0.2 -->
      <g style="fill:#262626;" transform="translate(22.81375 217.063257)scale(0.11 -0.11)">
       <use xlink:href="#DejaVuSans-48"/>
       <use x="63.623047" xlink:href="#DejaVuSans-46"/>
       <use x="95.410156" xlink:href="#DejaVuSans-50"/>
      </g>
     </g>
    </g>
    <g id="ytick_2">
     <g id="line2d_10">
      <path clip-path="url(#pccab951e99)" d="M 49.807187 185.896195 
L 384.607188 185.896195 
" style="fill:none;stroke:#cccccc;stroke-linecap:round;"/>
     </g>
     <g id="text_11">
      <!-- 0.4 -->
      <g style="fill:#262626;" transform="translate(22.81375 190.075336)scale(0.11 -0.11)">
       <use xlink:href="#DejaVuSans-48"/>
       <use x="63.623047" xlink:href="#DejaVuSans-46"/>
       <use x="95.410156" xlink:href="#DejaVuSans-52"/>
      </g>
     </g>
    </g>
    <g id="ytick_3">
     <g id="line2d_11">
      <path clip-path="url(#pccab951e99)" d="M 49.807187 158.908274 
L 384.607188 158.908274 
" style="fill:none;stroke:#cccccc;stroke-linecap:round;"/>
     </g>
     <g id="text_12">
      <!-- 0.6 -->
      <g style="fill:#262626;" transform="translate(22.81375 163.087415)scale(0.11 -0.11)">
       <use xlink:href="#DejaVuSans-48"/>
       <use x="63.623047" xlink:href="#DejaVuSans-46"/>
       <use x="95.410156" xlink:href="#DejaVuSans-54"/>
      </g>
     </g>
    </g>
    <g id="ytick_4">
     <g id="line2d_12">
      <path clip-path="url(#pccab951e99)" d="M 49.807187 131.920354 
L 384.607188 131.920354 
" style="fill:none;stroke:#cccccc;stroke-linecap:round;"/>
     </g>
     <g id="text_13">
      <!-- 0.8 -->
      <g style="fill:#262626;" transform="translate(22.81375 136.099494)scale(0.11 -0.11)">
       <use xlink:href="#DejaVuSans-48"/>
       <use x="63.623047" xlink:href="#DejaVuSans-46"/>
       <use x="95.410156" xlink:href="#DejaVuSans-56"/>
      </g>
     </g>
    </g>
    <g id="ytick_5">
     <g id="line2d_13">
      <path clip-path="url(#pccab951e99)" d="M 49.807187 104.932433 
L 384.607188 104.932433 
" style="fill:none;stroke:#cccccc;stroke-linecap:round;"/>
     </g>
     <g id="text_14">
      <!-- 1.0 -->
      <g style="fill:#262626;" transform="translate(22.81375 109.111573)scale(0.11 -0.11)">
       <use xlink:href="#DejaVuSans-49"/>
       <use x="63.623047" xlink:href="#DejaVuSans-46"/>
       <use x="95.410156" xlink:href="#DejaVuSans-48"/>
      </g>
     </g>
    </g>
    <g id="ytick_6">
     <g id="line2d_14">
      <path clip-path="url(#pccab951e99)" d="M 49.807187 77.944512 
L 384.607188 77.944512 
" style="fill:none;stroke:#cccccc;stroke-linecap:round;"/>
     </g>
     <g id="text_15">
      <!-- 1.2 -->
      <g style="fill:#262626;" transform="translate(22.81375 82.123653)scale(0.11 -0.11)">
       <use xlink:href="#DejaVuSans-49"/>
       <use x="63.623047" xlink:href="#DejaVuSans-46"/>
       <use x="95.410156" xlink:href="#DejaVuSans-50"/>
      </g>
     </g>
    </g>
    <g id="ytick_7">
     <g id="line2d_15">
      <path clip-path="url(#pccab951e99)" d="M 49.807187 50.956591 
L 384.607188 50.956591 
" style="fill:none;stroke:#cccccc;stroke-linecap:round;"/>
     </g>
     <g id="text_16">
      <!-- 1.4 -->
      <g style="fill:#262626;" transform="translate(22.81375 55.135732)scale(0.11 -0.11)">
       <use xlink:href="#DejaVuSans-49"/>
       <use x="63.623047" xlink:href="#DejaVuSans-46"/>
       <use x="95.410156" xlink:href="#DejaVuSans-52"/>
      </g>
     </g>
    </g>
    <g id="ytick_8">
     <g id="line2d_16">
      <path clip-path="url(#pccab951e99)" d="M 49.807187 23.96867 
L 384.607188 23.96867 
" style="fill:none;stroke:#cccccc;stroke-linecap:round;"/>
     </g>
     <g id="text_17">
      <!-- 1.6 -->
      <g style="fill:#262626;" transform="translate(22.81375 28.147811)scale(0.11 -0.11)">
       <use xlink:href="#DejaVuSans-49"/>
       <use x="63.623047" xlink:href="#DejaVuSans-46"/>
       <use x="95.410156" xlink:href="#DejaVuSans-54"/>
      </g>
     </g>
    </g>
    <g id="text_18">
     <!-- Ridge -->
     <defs>
      <path d="M 44.390625 34.1875 
Q 47.5625 33.109375 50.5625 29.59375 
Q 53.5625 26.078125 56.59375 19.921875 
L 66.609375 0 
L 56 0 
L 46.6875 18.703125 
Q 43.0625 26.03125 39.671875 28.421875 
Q 36.28125 30.8125 30.421875 30.8125 
L 19.671875 30.8125 
L 19.671875 0 
L 9.8125 0 
L 9.8125 72.90625 
L 32.078125 72.90625 
Q 44.578125 72.90625 50.734375 67.671875 
Q 56.890625 62.453125 56.890625 51.90625 
Q 56.890625 45.015625 53.6875 40.46875 
Q 50.484375 35.9375 44.390625 34.1875 
z
M 19.671875 64.796875 
L 19.671875 38.921875 
L 32.078125 38.921875 
Q 39.203125 38.921875 42.84375 42.21875 
Q 46.484375 45.515625 46.484375 51.90625 
Q 46.484375 58.296875 42.84375 61.546875 
Q 39.203125 64.796875 32.078125 64.796875 
z
" id="DejaVuSans-82"/>
      <path d="M 45.40625 46.390625 
L 45.40625 75.984375 
L 54.390625 75.984375 
L 54.390625 0 
L 45.40625 0 
L 45.40625 8.203125 
Q 42.578125 3.328125 38.25 0.953125 
Q 33.9375 -1.421875 27.875 -1.421875 
Q 17.96875 -1.421875 11.734375 6.484375 
Q 5.515625 14.40625 5.515625 27.296875 
Q 5.515625 40.1875 11.734375 48.09375 
Q 17.96875 56 27.875 56 
Q 33.9375 56 38.25 53.625 
Q 42.578125 51.265625 45.40625 46.390625 
z
M 14.796875 27.296875 
Q 14.796875 17.390625 18.875 11.75 
Q 22.953125 6.109375 30.078125 6.109375 
Q 37.203125 6.109375 41.296875 11.75 
Q 45.40625 17.390625 45.40625 27.296875 
Q 45.40625 37.203125 41.296875 42.84375 
Q 37.203125 48.484375 30.078125 48.484375 
Q 22.953125 48.484375 18.875 42.84375 
Q 14.796875 37.203125 14.796875 27.296875 
z
" id="DejaVuSans-100"/>
      <path d="M 56.203125 29.59375 
L 56.203125 25.203125 
L 14.890625 25.203125 
Q 15.484375 15.921875 20.484375 11.0625 
Q 25.484375 6.203125 34.421875 6.203125 
Q 39.59375 6.203125 44.453125 7.46875 
Q 49.3125 8.734375 54.109375 11.28125 
L 54.109375 2.78125 
Q 49.265625 0.734375 44.1875 -0.34375 
Q 39.109375 -1.421875 33.890625 -1.421875 
Q 20.796875 -1.421875 13.15625 6.1875 
Q 5.515625 13.8125 5.515625 26.8125 
Q 5.515625 40.234375 12.765625 48.109375 
Q 20.015625 56 32.328125 56 
Q 43.359375 56 49.78125 48.890625 
Q 56.203125 41.796875 56.203125 29.59375 
z
M 47.21875 32.234375 
Q 47.125 39.59375 43.09375 43.984375 
Q 39.0625 48.390625 32.421875 48.390625 
Q 24.90625 48.390625 20.390625 44.140625 
Q 15.875 39.890625 15.1875 32.171875 
z
" id="DejaVuSans-101"/>
     </defs>
     <g style="fill:#262626;" transform="translate(16.318125 133.065937)rotate(-90)scale(0.12 -0.12)">
      <use xlink:href="#DejaVuSans-82"/>
      <use x="69.482422" xlink:href="#DejaVuSans-105"/>
      <use x="97.265625" xlink:href="#DejaVuSans-100"/>
      <use x="160.742188" xlink:href="#DejaVuSans-103"/>
      <use x="224.21875" xlink:href="#DejaVuSans-101"/>
     </g>
    </g>
   </g>
   <g id="PathCollection_1">
    <defs>
     <path d="M 0 2.236068 
C 0.593012 2.236068 1.161816 2.000462 1.581139 1.581139 
C 2.000462 1.161816 2.236068 0.593012 2.236068 0 
C 2.236068 -0.593012 2.000462 -1.161816 1.581139 -1.581139 
C 1.161816 -2.000462 0.593012 -2.236068 0 -2.236068 
C -0.593012 -2.236068 -1.161816 -2.000462 -1.581139 -1.581139 
C -2.000462 -1.161816 -2.236068 -0.593012 -2.236068 0 
C -2.236068 0.593012 -2.000462 1.161816 -1.581139 1.581139 
C -1.161816 2.000462 -0.593012 2.236068 0 2.236068 
z
" id="m4166f7749e" style="stroke:#85c8dd;"/>
    </defs>
    <g clip-path="url(#pccab951e99)">
     <use style="fill:#85c8dd;stroke:#85c8dd;" x="84.155072" xlink:href="#m4166f7749e" y="180.025431"/>
     <use style="fill:#85c8dd;stroke:#85c8dd;" x="204.610689" xlink:href="#m4166f7749e" y="131.602048"/>
     <use style="fill:#85c8dd;stroke:#85c8dd;" x="194.810337" xlink:href="#m4166f7749e" y="134.644642"/>
     <use style="fill:#85c8dd;stroke:#85c8dd;" x="197.247468" xlink:href="#m4166f7749e" y="137.041614"/>
     <use style="fill:#85c8dd;stroke:#85c8dd;" x="192.736928" xlink:href="#m4166f7749e" y="122.15754"/>
     <use style="fill:#85c8dd;stroke:#85c8dd;" x="200.761911" xlink:href="#m4166f7749e" y="113.687848"/>
     <use style="fill:#85c8dd;stroke:#85c8dd;" x="186.667864" xlink:href="#m4166f7749e" y="106.060961"/>
     <use style="fill:#85c8dd;stroke:#85c8dd;" x="298.464503" xlink:href="#m4166f7749e" y="76.868939"/>
     <use style="fill:#85c8dd;stroke:#85c8dd;" x="212.776294" xlink:href="#m4166f7749e" y="125.671897"/>
     <use style="fill:#85c8dd;stroke:#85c8dd;" x="183.800621" xlink:href="#m4166f7749e" y="147.785553"/>
     <use style="fill:#85c8dd;stroke:#85c8dd;" x="203.369938" xlink:href="#m4166f7749e" y="117.52406"/>
     <use style="fill:#85c8dd;stroke:#85c8dd;" x="201.603489" xlink:href="#m4166f7749e" y="115.456086"/>
     <use style="fill:#85c8dd;stroke:#85c8dd;" x="225.178745" xlink:href="#m4166f7749e" y="84.81997"/>
     <use style="fill:#85c8dd;stroke:#85c8dd;" x="99.71609" xlink:href="#m4166f7749e" y="192.999188"/>
     <use style="fill:#85c8dd;stroke:#85c8dd;" x="241.46057" xlink:href="#m4166f7749e" y="106.588973"/>
     <use style="fill:#85c8dd;stroke:#85c8dd;" x="73.53064" xlink:href="#m4166f7749e" y="185.746717"/>
     <use style="fill:#85c8dd;stroke:#85c8dd;" x="184.395059" xlink:href="#m4166f7749e" y="126.175403"/>
     <use style="fill:#85c8dd;stroke:#85c8dd;" x="104.514633" xlink:href="#m4166f7749e" y="172.531587"/>
     <use style="fill:#85c8dd;stroke:#85c8dd;" x="197.314219" xlink:href="#m4166f7749e" y="125.08612"/>
     <use style="fill:#85c8dd;stroke:#85c8dd;" x="130.384474" xlink:href="#m4166f7749e" y="163.902323"/>
     <use style="fill:#85c8dd;stroke:#85c8dd;" x="274.05673" xlink:href="#m4166f7749e" y="115.684659"/>
     <use style="fill:#85c8dd;stroke:#85c8dd;" x="214.621519" xlink:href="#m4166f7749e" y="123.606256"/>
     <use style="fill:#85c8dd;stroke:#85c8dd;" x="187.865406" xlink:href="#m4166f7749e" y="128.250286"/>
     <use style="fill:#85c8dd;stroke:#85c8dd;" x="80.000988" xlink:href="#m4166f7749e" y="192.797642"/>
     <use style="fill:#85c8dd;stroke:#85c8dd;" x="87.405659" xlink:href="#m4166f7749e" y="196.952732"/>
     <use style="fill:#85c8dd;stroke:#85c8dd;" x="198.801124" xlink:href="#m4166f7749e" y="133.989937"/>
     <use style="fill:#85c8dd;stroke:#85c8dd;" x="106.65401" xlink:href="#m4166f7749e" y="172.24425"/>
     <use style="fill:#85c8dd;stroke:#85c8dd;" x="230.737101" xlink:href="#m4166f7749e" y="103.704812"/>
     <use style="fill:#85c8dd;stroke:#85c8dd;" x="123.468718" xlink:href="#m4166f7749e" y="172.216484"/>
     <use style="fill:#85c8dd;stroke:#85c8dd;" x="205.980183" xlink:href="#m4166f7749e" y="122.756675"/>
     <use style="fill:#85c8dd;stroke:#85c8dd;" x="163.617396" xlink:href="#m4166f7749e" y="150.842504"/>
     <use style="fill:#85c8dd;stroke:#85c8dd;" x="205.401439" xlink:href="#m4166f7749e" y="121.163705"/>
     <use style="fill:#85c8dd;stroke:#85c8dd;" x="146.836579" xlink:href="#m4166f7749e" y="161.350878"/>
     <use style="fill:#85c8dd;stroke:#85c8dd;" x="216.472926" xlink:href="#m4166f7749e" y="110.238527"/>
     <use style="fill:#85c8dd;stroke:#85c8dd;" x="338.89724" xlink:href="#m4166f7749e" y="52.040166"/>
     <use style="fill:#85c8dd;stroke:#85c8dd;" x="253.365885" xlink:href="#m4166f7749e" y="125.237479"/>
     <use style="fill:#85c8dd;stroke:#85c8dd;" x="204.476374" xlink:href="#m4166f7749e" y="134.360812"/>
     <use style="fill:#85c8dd;stroke:#85c8dd;" x="271.922307" xlink:href="#m4166f7749e" y="107.658477"/>
     <use style="fill:#85c8dd;stroke:#85c8dd;" x="215.335069" xlink:href="#m4166f7749e" y="106.574006"/>
     <use style="fill:#85c8dd;stroke:#85c8dd;" x="189.96724" xlink:href="#m4166f7749e" y="122.475509"/>
     <use style="fill:#85c8dd;stroke:#85c8dd;" x="134.182198" xlink:href="#m4166f7749e" y="151.288489"/>
     <use style="fill:#85c8dd;stroke:#85c8dd;" x="279.835864" xlink:href="#m4166f7749e" y="50.257884"/>
     <use style="fill:#85c8dd;stroke:#85c8dd;" x="368.003521" xlink:href="#m4166f7749e" y="26.095548"/>
     <use style="fill:#85c8dd;stroke:#85c8dd;" x="245.797739" xlink:href="#m4166f7749e" y="114.623316"/>
     <use style="fill:#85c8dd;stroke:#85c8dd;" x="191.699683" xlink:href="#m4166f7749e" y="130.494169"/>
     <use style="fill:#85c8dd;stroke:#85c8dd;" x="204.192274" xlink:href="#m4166f7749e" y="109.673568"/>
     <use style="fill:#85c8dd;stroke:#85c8dd;" x="314.253353" xlink:href="#m4166f7749e" y="63.046217"/>
     <use style="fill:#85c8dd;stroke:#85c8dd;" x="178.466231" xlink:href="#m4166f7749e" y="154.795563"/>
     <use style="fill:#85c8dd;stroke:#85c8dd;" x="226.537594" xlink:href="#m4166f7749e" y="98.092797"/>
     <use style="fill:#85c8dd;stroke:#85c8dd;" x="166.632991" xlink:href="#m4166f7749e" y="140.586004"/>
     <use style="fill:#85c8dd;stroke:#85c8dd;" x="190.570454" xlink:href="#m4166f7749e" y="137.172903"/>
     <use style="fill:#85c8dd;stroke:#85c8dd;" x="289.050558" xlink:href="#m4166f7749e" y="63.100625"/>
     <use style="fill:#85c8dd;stroke:#85c8dd;" x="195.426008" xlink:href="#m4166f7749e" y="133.696734"/>
     <use style="fill:#85c8dd;stroke:#85c8dd;" x="204.078545" xlink:href="#m4166f7749e" y="116.327482"/>
     <use style="fill:#85c8dd;stroke:#85c8dd;" x="196.944592" xlink:href="#m4166f7749e" y="116.037816"/>
     <use style="fill:#85c8dd;stroke:#85c8dd;" x="170.426893" xlink:href="#m4166f7749e" y="145.471662"/>
     <use style="fill:#85c8dd;stroke:#85c8dd;" x="159.271087" xlink:href="#m4166f7749e" y="151.876124"/>
     <use style="fill:#85c8dd;stroke:#85c8dd;" x="116.0264" xlink:href="#m4166f7749e" y="164.899422"/>
     <use style="fill:#85c8dd;stroke:#85c8dd;" x="351.084966" xlink:href="#m4166f7749e" y="55.122176"/>
     <use style="fill:#85c8dd;stroke:#85c8dd;" x="224.72098" xlink:href="#m4166f7749e" y="109.35171"/>
     <use style="fill:#85c8dd;stroke:#85c8dd;" x="226.372476" xlink:href="#m4166f7749e" y="123.027035"/>
     <use style="fill:#85c8dd;stroke:#85c8dd;" x="116.017425" xlink:href="#m4166f7749e" y="166.760267"/>
     <use style="fill:#85c8dd;stroke:#85c8dd;" x="113.042359" xlink:href="#m4166f7749e" y="177.27312"/>
     <use style="fill:#85c8dd;stroke:#85c8dd;" x="171.307508" xlink:href="#m4166f7749e" y="155.225208"/>
     <use style="fill:#85c8dd;stroke:#85c8dd;" x="261.961507" xlink:href="#m4166f7749e" y="56.391726"/>
     <use style="fill:#85c8dd;stroke:#85c8dd;" x="198.538889" xlink:href="#m4166f7749e" y="121.818887"/>
     <use style="fill:#85c8dd;stroke:#85c8dd;" x="192.395505" xlink:href="#m4166f7749e" y="119.055751"/>
     <use style="fill:#85c8dd;stroke:#85c8dd;" x="194.277293" xlink:href="#m4166f7749e" y="132.155643"/>
     <use style="fill:#85c8dd;stroke:#85c8dd;" x="206.979863" xlink:href="#m4166f7749e" y="118.112763"/>
     <use style="fill:#85c8dd;stroke:#85c8dd;" x="166.646966" xlink:href="#m4166f7749e" y="145.630569"/>
     <use style="fill:#85c8dd;stroke:#85c8dd;" x="66.410854" xlink:href="#m4166f7749e" y="213.368697"/>
     <use style="fill:#85c8dd;stroke:#85c8dd;" x="247.319429" xlink:href="#m4166f7749e" y="60.760236"/>
     <use style="fill:#85c8dd;stroke:#85c8dd;" x="197.533098" xlink:href="#m4166f7749e" y="133.314493"/>
     <use style="fill:#85c8dd;stroke:#85c8dd;" x="345.468129" xlink:href="#m4166f7749e" y="54.041426"/>
     <use style="fill:#85c8dd;stroke:#85c8dd;" x="222.100659" xlink:href="#m4166f7749e" y="86.479143"/>
     <use style="fill:#85c8dd;stroke:#85c8dd;" x="130.599129" xlink:href="#m4166f7749e" y="167.312296"/>
     <use style="fill:#85c8dd;stroke:#85c8dd;" x="333.814493" xlink:href="#m4166f7749e" y="23.797137"/>
     <use style="fill:#85c8dd;stroke:#85c8dd;" x="212.922222" xlink:href="#m4166f7749e" y="104.874168"/>
     <use style="fill:#85c8dd;stroke:#85c8dd;" x="194.373561" xlink:href="#m4166f7749e" y="130.218109"/>
     <use style="fill:#85c8dd;stroke:#85c8dd;" x="191.951367" xlink:href="#m4166f7749e" y="123.066793"/>
     <use style="fill:#85c8dd;stroke:#85c8dd;" x="170.291481" xlink:href="#m4166f7749e" y="150.856722"/>
     <use style="fill:#85c8dd;stroke:#85c8dd;" x="170.034555" xlink:href="#m4166f7749e" y="152.744256"/>
     <use style="fill:#85c8dd;stroke:#85c8dd;" x="211.758212" xlink:href="#m4166f7749e" y="109.280056"/>
     <use style="fill:#85c8dd;stroke:#85c8dd;" x="189.232181" xlink:href="#m4166f7749e" y="117.032649"/>
     <use style="fill:#85c8dd;stroke:#85c8dd;" x="216.303348" xlink:href="#m4166f7749e" y="104.662955"/>
     <use style="fill:#85c8dd;stroke:#85c8dd;" x="199.75046" xlink:href="#m4166f7749e" y="136.486591"/>
     <use style="fill:#85c8dd;stroke:#85c8dd;" x="113.680627" xlink:href="#m4166f7749e" y="174.373595"/>
     <use style="fill:#85c8dd;stroke:#85c8dd;" x="192.603248" xlink:href="#m4166f7749e" y="132.957522"/>
     <use style="fill:#85c8dd;stroke:#85c8dd;" x="201.346126" xlink:href="#m4166f7749e" y="102.710003"/>
     <use style="fill:#85c8dd;stroke:#85c8dd;" x="278.72574" xlink:href="#m4166f7749e" y="63.161866"/>
     <use style="fill:#85c8dd;stroke:#85c8dd;" x="248.280854" xlink:href="#m4166f7749e" y="82.683519"/>
     <use style="fill:#85c8dd;stroke:#85c8dd;" x="186.22341" xlink:href="#m4166f7749e" y="122.06635"/>
     <use style="fill:#85c8dd;stroke:#85c8dd;" x="77.584319" xlink:href="#m4166f7749e" y="182.669631"/>
     <use style="fill:#85c8dd;stroke:#85c8dd;" x="115.658696" xlink:href="#m4166f7749e" y="160.7831"/>
     <use style="fill:#85c8dd;stroke:#85c8dd;" x="257.835168" xlink:href="#m4166f7749e" y="158.7542"/>
     <use style="fill:#85c8dd;stroke:#85c8dd;" x="182.548655" xlink:href="#m4166f7749e" y="133.684348"/>
     <use style="fill:#85c8dd;stroke:#85c8dd;" x="177.958186" xlink:href="#m4166f7749e" y="129.919646"/>
     <use style="fill:#85c8dd;stroke:#85c8dd;" x="299.024222" xlink:href="#m4166f7749e" y="86.464863"/>
     <use style="fill:#85c8dd;stroke:#85c8dd;" x="209.072185" xlink:href="#m4166f7749e" y="149.045482"/>
     <use style="fill:#85c8dd;stroke:#85c8dd;" x="215.752204" xlink:href="#m4166f7749e" y="102.918536"/>
     <use style="fill:#85c8dd;stroke:#85c8dd;" x="129.140255" xlink:href="#m4166f7749e" y="153.458468"/>
     <use style="fill:#85c8dd;stroke:#85c8dd;" x="210.509887" xlink:href="#m4166f7749e" y="101.116117"/>
     <use style="fill:#85c8dd;stroke:#85c8dd;" x="238.696274" xlink:href="#m4166f7749e" y="89.09645"/>
     <use style="fill:#85c8dd;stroke:#85c8dd;" x="189.500006" xlink:href="#m4166f7749e" y="137.981616"/>
     <use style="fill:#85c8dd;stroke:#85c8dd;" x="113.903317" xlink:href="#m4166f7749e" y="170.341561"/>
     <use style="fill:#85c8dd;stroke:#85c8dd;" x="276.007129" xlink:href="#m4166f7749e" y="63.797841"/>
     <use style="fill:#85c8dd;stroke:#85c8dd;" x="262.227417" xlink:href="#m4166f7749e" y="62.639431"/>
     <use style="fill:#85c8dd;stroke:#85c8dd;" x="99.718888" xlink:href="#m4166f7749e" y="167.275525"/>
     <use style="fill:#85c8dd;stroke:#85c8dd;" x="243.550199" xlink:href="#m4166f7749e" y="88.792321"/>
     <use style="fill:#85c8dd;stroke:#85c8dd;" x="84.181116" xlink:href="#m4166f7749e" y="162.754295"/>
     <use style="fill:#85c8dd;stroke:#85c8dd;" x="213.775446" xlink:href="#m4166f7749e" y="95.003107"/>
     <use style="fill:#85c8dd;stroke:#85c8dd;" x="159.787687" xlink:href="#m4166f7749e" y="163.466303"/>
     <use style="fill:#85c8dd;stroke:#85c8dd;" x="364.376099" xlink:href="#m4166f7749e" y="18.471303"/>
     <use style="fill:#85c8dd;stroke:#85c8dd;" x="258.588911" xlink:href="#m4166f7749e" y="86.600614"/>
     <use style="fill:#85c8dd;stroke:#85c8dd;" x="250.911968" xlink:href="#m4166f7749e" y="139.061432"/>
     <use style="fill:#85c8dd;stroke:#85c8dd;" x="206.035364" xlink:href="#m4166f7749e" y="102.286924"/>
     <use style="fill:#85c8dd;stroke:#85c8dd;" x="170.182448" xlink:href="#m4166f7749e" y="144.845491"/>
     <use style="fill:#85c8dd;stroke:#85c8dd;" x="135.985048" xlink:href="#m4166f7749e" y="158.530415"/>
     <use style="fill:#85c8dd;stroke:#85c8dd;" x="241.684692" xlink:href="#m4166f7749e" y="93.084231"/>
     <use style="fill:#85c8dd;stroke:#85c8dd;" x="266.812131" xlink:href="#m4166f7749e" y="84.06605"/>
     <use style="fill:#85c8dd;stroke:#85c8dd;" x="114.245212" xlink:href="#m4166f7749e" y="170.351326"/>
     <use style="fill:#85c8dd;stroke:#85c8dd;" x="260.935487" xlink:href="#m4166f7749e" y="39.014588"/>
     <use style="fill:#85c8dd;stroke:#85c8dd;" x="150.967486" xlink:href="#m4166f7749e" y="167.139434"/>
     <use style="fill:#85c8dd;stroke:#85c8dd;" x="281.115045" xlink:href="#m4166f7749e" y="66.454147"/>
     <use style="fill:#85c8dd;stroke:#85c8dd;" x="279.21219" xlink:href="#m4166f7749e" y="74.901955"/>
     <use style="fill:#85c8dd;stroke:#85c8dd;" x="144.099047" xlink:href="#m4166f7749e" y="149.606763"/>
     <use style="fill:#85c8dd;stroke:#85c8dd;" x="95.179873" xlink:href="#m4166f7749e" y="166.029785"/>
    </g>
   </g>
   <g id="patch_3">
    <path d="M 49.807187 224.64 
L 49.807187 7.2 
" style="fill:none;stroke:#cccccc;stroke-linecap:square;stroke-linejoin:miter;stroke-width:1.25;"/>
   </g>
   <g id="patch_4">
    <path d="M 384.607188 224.64 
L 384.607188 7.2 
" style="fill:none;stroke:#cccccc;stroke-linecap:square;stroke-linejoin:miter;stroke-width:1.25;"/>
   </g>
   <g id="patch_5">
    <path d="M 49.807187 224.64 
L 384.607187 224.64 
" style="fill:none;stroke:#cccccc;stroke-linecap:square;stroke-linejoin:miter;stroke-width:1.25;"/>
   </g>
   <g id="patch_6">
    <path d="M 49.807187 7.2 
L 384.607187 7.2 
" style="fill:none;stroke:#cccccc;stroke-linecap:square;stroke-linejoin:miter;stroke-width:1.25;"/>
   </g>
  </g>
 </g>
 <defs>
  <clipPath id="pccab951e99">
   <rect height="217.44" width="334.8" x="49.807187" y="7.2"/>
  </clipPath>
 </defs>
</svg>
