<?xml version="1.0" encoding="utf-8" standalone="no"?>
<!DOCTYPE svg PUBLIC "-//W3C//DTD SVG 1.1//EN"
  "http://www.w3.org/Graphics/SVG/1.1/DTD/svg11.dtd">
<!-- Created with matplotlib (https://matplotlib.org/) -->
<svg height="212.744063pt" version="1.1" viewBox="0 0 600.642542 212.744063" width="600.642542pt" xmlns="http://www.w3.org/2000/svg" xmlns:xlink="http://www.w3.org/1999/xlink">
 <defs>
  <style type="text/css">
*{stroke-linecap:butt;stroke-linejoin:round;}
  </style>
 </defs>
 <g id="figure_1">
  <g id="patch_1">
   <path d="M 0 212.744063 
L 600.642542 212.744063 
L 600.642542 0 
L 0 0 
z
" style="fill:#ffffff;"/>
  </g>
  <g id="axes_1">
   <g id="patch_2">
    <path d="M 30.6975 185.398125 
L 273.306196 185.398125 
L 273.306196 22.318125 
L 30.6975 22.318125 
z
" style="fill:#ffffff;"/>
   </g>
   <g id="matplotlib.axis_1">
    <g id="xtick_1">
     <g id="line2d_1">
      <path clip-path="url(#pbc50c5b7e1)" d="M 66.231097 185.398125 
L 66.231097 22.318125 
" style="fill:none;stroke:#cccccc;stroke-linecap:round;"/>
     </g>
     <g id="text_1">
      <!-- 10 -->
      <defs>
       <path d="M 12.40625 8.296875 
L 28.515625 8.296875 
L 28.515625 63.921875 
L 10.984375 60.40625 
L 10.984375 69.390625 
L 28.421875 72.90625 
L 38.28125 72.90625 
L 38.28125 8.296875 
L 54.390625 8.296875 
L 54.390625 0 
L 12.40625 0 
z
" id="DejaVuSans-49"/>
       <path d="M 31.78125 66.40625 
Q 24.171875 66.40625 20.328125 58.90625 
Q 16.5 51.421875 16.5 36.375 
Q 16.5 21.390625 20.328125 13.890625 
Q 24.171875 6.390625 31.78125 6.390625 
Q 39.453125 6.390625 43.28125 13.890625 
Q 47.125 21.390625 47.125 36.375 
Q 47.125 51.421875 43.28125 58.90625 
Q 39.453125 66.40625 31.78125 66.40625 
z
M 31.78125 74.21875 
Q 44.046875 74.21875 50.515625 64.515625 
Q 56.984375 54.828125 56.984375 36.375 
Q 56.984375 17.96875 50.515625 8.265625 
Q 44.046875 -1.421875 31.78125 -1.421875 
Q 19.53125 -1.421875 13.0625 8.265625 
Q 6.59375 17.96875 6.59375 36.375 
Q 6.59375 54.828125 13.0625 64.515625 
Q 19.53125 74.21875 31.78125 74.21875 
z
" id="DejaVuSans-48"/>
      </defs>
      <g style="fill:#262626;" transform="translate(59.232347 203.256406)scale(0.11 -0.11)">
       <use xlink:href="#DejaVuSans-49"/>
       <use x="63.623047" xlink:href="#DejaVuSans-48"/>
      </g>
     </g>
    </g>
    <g id="xtick_2">
     <g id="line2d_2">
      <path clip-path="url(#pbc50c5b7e1)" d="M 115.242955 185.398125 
L 115.242955 22.318125 
" style="fill:none;stroke:#cccccc;stroke-linecap:round;"/>
     </g>
     <g id="text_2">
      <!-- 20 -->
      <defs>
       <path d="M 19.1875 8.296875 
L 53.609375 8.296875 
L 53.609375 0 
L 7.328125 0 
L 7.328125 8.296875 
Q 12.9375 14.109375 22.625 23.890625 
Q 32.328125 33.6875 34.8125 36.53125 
Q 39.546875 41.84375 41.421875 45.53125 
Q 43.3125 49.21875 43.3125 52.78125 
Q 43.3125 58.59375 39.234375 62.25 
Q 35.15625 65.921875 28.609375 65.921875 
Q 23.96875 65.921875 18.8125 64.3125 
Q 13.671875 62.703125 7.8125 59.421875 
L 7.8125 69.390625 
Q 13.765625 71.78125 18.9375 73 
Q 24.125 74.21875 28.421875 74.21875 
Q 39.75 74.21875 46.484375 68.546875 
Q 53.21875 62.890625 53.21875 53.421875 
Q 53.21875 48.921875 51.53125 44.890625 
Q 49.859375 40.875 45.40625 35.40625 
Q 44.1875 33.984375 37.640625 27.21875 
Q 31.109375 20.453125 19.1875 8.296875 
z
" id="DejaVuSans-50"/>
      </defs>
      <g style="fill:#262626;" transform="translate(108.244205 203.256406)scale(0.11 -0.11)">
       <use xlink:href="#DejaVuSans-50"/>
       <use x="63.623047" xlink:href="#DejaVuSans-48"/>
      </g>
     </g>
    </g>
    <g id="xtick_3">
     <g id="line2d_3">
      <path clip-path="url(#pbc50c5b7e1)" d="M 164.254812 185.398125 
L 164.254812 22.318125 
" style="fill:none;stroke:#cccccc;stroke-linecap:round;"/>
     </g>
     <g id="text_3">
      <!-- 30 -->
      <defs>
       <path d="M 40.578125 39.3125 
Q 47.65625 37.796875 51.625 33 
Q 55.609375 28.21875 55.609375 21.1875 
Q 55.609375 10.40625 48.1875 4.484375 
Q 40.765625 -1.421875 27.09375 -1.421875 
Q 22.515625 -1.421875 17.65625 -0.515625 
Q 12.796875 0.390625 7.625 2.203125 
L 7.625 11.71875 
Q 11.71875 9.328125 16.59375 8.109375 
Q 21.484375 6.890625 26.8125 6.890625 
Q 36.078125 6.890625 40.9375 10.546875 
Q 45.796875 14.203125 45.796875 21.1875 
Q 45.796875 27.640625 41.28125 31.265625 
Q 36.765625 34.90625 28.71875 34.90625 
L 20.21875 34.90625 
L 20.21875 43.015625 
L 29.109375 43.015625 
Q 36.375 43.015625 40.234375 45.921875 
Q 44.09375 48.828125 44.09375 54.296875 
Q 44.09375 59.90625 40.109375 62.90625 
Q 36.140625 65.921875 28.71875 65.921875 
Q 24.65625 65.921875 20.015625 65.03125 
Q 15.375 64.15625 9.8125 62.3125 
L 9.8125 71.09375 
Q 15.4375 72.65625 20.34375 73.4375 
Q 25.25 74.21875 29.59375 74.21875 
Q 40.828125 74.21875 47.359375 69.109375 
Q 53.90625 64.015625 53.90625 55.328125 
Q 53.90625 49.265625 50.4375 45.09375 
Q 46.96875 40.921875 40.578125 39.3125 
z
" id="DejaVuSans-51"/>
      </defs>
      <g style="fill:#262626;" transform="translate(157.256062 203.256406)scale(0.11 -0.11)">
       <use xlink:href="#DejaVuSans-51"/>
       <use x="63.623047" xlink:href="#DejaVuSans-48"/>
      </g>
     </g>
    </g>
    <g id="xtick_4">
     <g id="line2d_4">
      <path clip-path="url(#pbc50c5b7e1)" d="M 213.26667 185.398125 
L 213.26667 22.318125 
" style="fill:none;stroke:#cccccc;stroke-linecap:round;"/>
     </g>
     <g id="text_4">
      <!-- 40 -->
      <defs>
       <path d="M 37.796875 64.3125 
L 12.890625 25.390625 
L 37.796875 25.390625 
z
M 35.203125 72.90625 
L 47.609375 72.90625 
L 47.609375 25.390625 
L 58.015625 25.390625 
L 58.015625 17.1875 
L 47.609375 17.1875 
L 47.609375 0 
L 37.796875 0 
L 37.796875 17.1875 
L 4.890625 17.1875 
L 4.890625 26.703125 
z
" id="DejaVuSans-52"/>
      </defs>
      <g style="fill:#262626;" transform="translate(206.26792 203.256406)scale(0.11 -0.11)">
       <use xlink:href="#DejaVuSans-52"/>
       <use x="63.623047" xlink:href="#DejaVuSans-48"/>
      </g>
     </g>
    </g>
    <g id="xtick_5">
     <g id="line2d_5">
      <path clip-path="url(#pbc50c5b7e1)" d="M 262.278528 185.398125 
L 262.278528 22.318125 
" style="fill:none;stroke:#cccccc;stroke-linecap:round;"/>
     </g>
     <g id="text_5">
      <!-- 50 -->
      <defs>
       <path d="M 10.796875 72.90625 
L 49.515625 72.90625 
L 49.515625 64.59375 
L 19.828125 64.59375 
L 19.828125 46.734375 
Q 21.96875 47.46875 24.109375 47.828125 
Q 26.265625 48.1875 28.421875 48.1875 
Q 40.625 48.1875 47.75 41.5 
Q 54.890625 34.8125 54.890625 23.390625 
Q 54.890625 11.625 47.5625 5.09375 
Q 40.234375 -1.421875 26.90625 -1.421875 
Q 22.3125 -1.421875 17.546875 -0.640625 
Q 12.796875 0.140625 7.71875 1.703125 
L 7.71875 11.625 
Q 12.109375 9.234375 16.796875 8.0625 
Q 21.484375 6.890625 26.703125 6.890625 
Q 35.15625 6.890625 40.078125 11.328125 
Q 45.015625 15.765625 45.015625 23.390625 
Q 45.015625 31 40.078125 35.4375 
Q 35.15625 39.890625 26.703125 39.890625 
Q 22.75 39.890625 18.8125 39.015625 
Q 14.890625 38.140625 10.796875 36.28125 
z
" id="DejaVuSans-53"/>
      </defs>
      <g style="fill:#262626;" transform="translate(255.279778 203.256406)scale(0.11 -0.11)">
       <use xlink:href="#DejaVuSans-53"/>
       <use x="63.623047" xlink:href="#DejaVuSans-48"/>
      </g>
     </g>
    </g>
   </g>
   <g id="matplotlib.axis_2">
    <g id="ytick_1">
     <g id="line2d_6">
      <path clip-path="url(#pbc50c5b7e1)" d="M 30.6975 185.398125 
L 273.306196 185.398125 
" style="fill:none;stroke:#cccccc;stroke-linecap:round;"/>
     </g>
     <g id="text_6">
      <!-- 0 -->
      <g style="fill:#262626;" transform="translate(14.19875 189.577266)scale(0.11 -0.11)">
       <use xlink:href="#DejaVuSans-48"/>
      </g>
     </g>
    </g>
    <g id="ytick_2">
     <g id="line2d_7">
      <path clip-path="url(#pbc50c5b7e1)" d="M 30.6975 143.421291 
L 273.306196 143.421291 
" style="fill:none;stroke:#cccccc;stroke-linecap:round;"/>
     </g>
     <g id="text_7">
      <!-- 10 -->
      <g style="fill:#262626;" transform="translate(7.2 147.600432)scale(0.11 -0.11)">
       <use xlink:href="#DejaVuSans-49"/>
       <use x="63.623047" xlink:href="#DejaVuSans-48"/>
      </g>
     </g>
    </g>
    <g id="ytick_3">
     <g id="line2d_8">
      <path clip-path="url(#pbc50c5b7e1)" d="M 30.6975 101.444457 
L 273.306196 101.444457 
" style="fill:none;stroke:#cccccc;stroke-linecap:round;"/>
     </g>
     <g id="text_8">
      <!-- 20 -->
      <g style="fill:#262626;" transform="translate(7.2 105.623598)scale(0.11 -0.11)">
       <use xlink:href="#DejaVuSans-50"/>
       <use x="63.623047" xlink:href="#DejaVuSans-48"/>
      </g>
     </g>
    </g>
    <g id="ytick_4">
     <g id="line2d_9">
      <path clip-path="url(#pbc50c5b7e1)" d="M 30.6975 59.467623 
L 273.306196 59.467623 
" style="fill:none;stroke:#cccccc;stroke-linecap:round;"/>
     </g>
     <g id="text_9">
      <!-- 30 -->
      <g style="fill:#262626;" transform="translate(7.2 63.646764)scale(0.11 -0.11)">
       <use xlink:href="#DejaVuSans-51"/>
       <use x="63.623047" xlink:href="#DejaVuSans-48"/>
      </g>
     </g>
    </g>
   </g>
   <g id="patch_3">
    <path clip-path="url(#pbc50c5b7e1)" d="M 41.725168 185.398125 
L 46.136235 185.398125 
L 46.136235 172.805075 
L 41.725168 172.805075 
z
" style="fill:#f1684e;stroke:#ffffff;stroke-linejoin:miter;"/>
   </g>
   <g id="patch_4">
    <path clip-path="url(#pbc50c5b7e1)" d="M 46.136235 185.398125 
L 50.547302 185.398125 
L 50.547302 181.200442 
L 46.136235 181.200442 
z
" style="fill:#f1684e;stroke:#ffffff;stroke-linejoin:miter;"/>
   </g>
   <g id="patch_5">
    <path clip-path="url(#pbc50c5b7e1)" d="M 50.547302 185.398125 
L 54.95837 185.398125 
L 54.95837 156.014341 
L 50.547302 156.014341 
z
" style="fill:#f1684e;stroke:#ffffff;stroke-linejoin:miter;"/>
   </g>
   <g id="patch_6">
    <path clip-path="url(#pbc50c5b7e1)" d="M 54.95837 185.398125 
L 59.369437 185.398125 
L 59.369437 156.014341 
L 54.95837 156.014341 
z
" style="fill:#f1684e;stroke:#ffffff;stroke-linejoin:miter;"/>
   </g>
   <g id="patch_7">
    <path clip-path="url(#pbc50c5b7e1)" d="M 59.369437 185.398125 
L 63.780504 185.398125 
L 63.780504 172.805075 
L 59.369437 172.805075 
z
" style="fill:#f1684e;stroke:#ffffff;stroke-linejoin:miter;"/>
   </g>
   <g id="patch_8">
    <path clip-path="url(#pbc50c5b7e1)" d="M 63.780504 185.398125 
L 68.191571 185.398125 
L 68.191571 160.212025 
L 63.780504 160.212025 
z
" style="fill:#f1684e;stroke:#ffffff;stroke-linejoin:miter;"/>
   </g>
   <g id="patch_9">
    <path clip-path="url(#pbc50c5b7e1)" d="M 68.191571 185.398125 
L 72.602638 185.398125 
L 72.602638 151.816658 
L 68.191571 151.816658 
z
" style="fill:#f1684e;stroke:#ffffff;stroke-linejoin:miter;"/>
   </g>
   <g id="patch_10">
    <path clip-path="url(#pbc50c5b7e1)" d="M 72.602638 185.398125 
L 77.013706 185.398125 
L 77.013706 143.421291 
L 72.602638 143.421291 
z
" style="fill:#f1684e;stroke:#ffffff;stroke-linejoin:miter;"/>
   </g>
   <g id="patch_11">
    <path clip-path="url(#pbc50c5b7e1)" d="M 77.013706 185.398125 
L 81.424773 185.398125 
L 81.424773 151.816658 
L 77.013706 151.816658 
z
" style="fill:#f1684e;stroke:#ffffff;stroke-linejoin:miter;"/>
   </g>
   <g id="patch_12">
    <path clip-path="url(#pbc50c5b7e1)" d="M 81.424773 185.398125 
L 85.83584 185.398125 
L 85.83584 88.851407 
L 81.424773 88.851407 
z
" style="fill:#f1684e;stroke:#ffffff;stroke-linejoin:miter;"/>
   </g>
   <g id="patch_13">
    <path clip-path="url(#pbc50c5b7e1)" d="M 85.83584 185.398125 
L 90.246907 185.398125 
L 90.246907 122.432874 
L 85.83584 122.432874 
z
" style="fill:#f1684e;stroke:#ffffff;stroke-linejoin:miter;"/>
   </g>
   <g id="patch_14">
    <path clip-path="url(#pbc50c5b7e1)" d="M 90.246907 185.398125 
L 94.657974 185.398125 
L 94.657974 105.64214 
L 90.246907 105.64214 
z
" style="fill:#f1684e;stroke:#ffffff;stroke-linejoin:miter;"/>
   </g>
   <g id="patch_15">
    <path clip-path="url(#pbc50c5b7e1)" d="M 94.657974 185.398125 
L 99.069042 185.398125 
L 99.069042 126.630557 
L 94.657974 126.630557 
z
" style="fill:#f1684e;stroke:#ffffff;stroke-linejoin:miter;"/>
   </g>
   <g id="patch_16">
    <path clip-path="url(#pbc50c5b7e1)" d="M 99.069042 185.398125 
L 103.480109 185.398125 
L 103.480109 118.235191 
L 99.069042 118.235191 
z
" style="fill:#f1684e;stroke:#ffffff;stroke-linejoin:miter;"/>
   </g>
   <g id="patch_17">
    <path clip-path="url(#pbc50c5b7e1)" d="M 103.480109 185.398125 
L 107.891176 185.398125 
L 107.891176 109.839824 
L 103.480109 109.839824 
z
" style="fill:#f1684e;stroke:#ffffff;stroke-linejoin:miter;"/>
   </g>
   <g id="patch_18">
    <path clip-path="url(#pbc50c5b7e1)" d="M 107.891176 185.398125 
L 112.302243 185.398125 
L 112.302243 67.86299 
L 107.891176 67.86299 
z
" style="fill:#f1684e;stroke:#ffffff;stroke-linejoin:miter;"/>
   </g>
   <g id="patch_19">
    <path clip-path="url(#pbc50c5b7e1)" d="M 112.302243 185.398125 
L 116.71331 185.398125 
L 116.71331 34.281523 
L 112.302243 34.281523 
z
" style="fill:#f1684e;stroke:#ffffff;stroke-linejoin:miter;"/>
   </g>
   <g id="patch_20">
    <path clip-path="url(#pbc50c5b7e1)" d="M 116.71331 185.398125 
L 121.124377 185.398125 
L 121.124377 63.665306 
L 116.71331 63.665306 
z
" style="fill:#f1684e;stroke:#ffffff;stroke-linejoin:miter;"/>
   </g>
   <g id="patch_21">
    <path clip-path="url(#pbc50c5b7e1)" d="M 121.124377 185.398125 
L 125.535445 185.398125 
L 125.535445 46.874573 
L 121.124377 46.874573 
z
" style="fill:#f1684e;stroke:#ffffff;stroke-linejoin:miter;"/>
   </g>
   <g id="patch_22">
    <path clip-path="url(#pbc50c5b7e1)" d="M 125.535445 185.398125 
L 129.946512 185.398125 
L 129.946512 67.86299 
L 125.535445 67.86299 
z
" style="fill:#f1684e;stroke:#ffffff;stroke-linejoin:miter;"/>
   </g>
   <g id="patch_23">
    <path clip-path="url(#pbc50c5b7e1)" d="M 129.946512 185.398125 
L 134.357579 185.398125 
L 134.357579 30.083839 
L 129.946512 30.083839 
z
" style="fill:#f1684e;stroke:#ffffff;stroke-linejoin:miter;"/>
   </g>
   <g id="patch_24">
    <path clip-path="url(#pbc50c5b7e1)" d="M 134.357579 185.398125 
L 138.768646 185.398125 
L 138.768646 97.246774 
L 134.357579 97.246774 
z
" style="fill:#f1684e;stroke:#ffffff;stroke-linejoin:miter;"/>
   </g>
   <g id="patch_25">
    <path clip-path="url(#pbc50c5b7e1)" d="M 138.768646 185.398125 
L 143.179713 185.398125 
L 143.179713 122.432874 
L 138.768646 122.432874 
z
" style="fill:#f1684e;stroke:#ffffff;stroke-linejoin:miter;"/>
   </g>
   <g id="patch_26">
    <path clip-path="url(#pbc50c5b7e1)" d="M 143.179713 185.398125 
L 147.590781 185.398125 
L 147.590781 168.607391 
L 143.179713 168.607391 
z
" style="fill:#f1684e;stroke:#ffffff;stroke-linejoin:miter;"/>
   </g>
   <g id="patch_27">
    <path clip-path="url(#pbc50c5b7e1)" d="M 147.590781 185.398125 
L 152.001848 185.398125 
L 152.001848 156.014341 
L 147.590781 156.014341 
z
" style="fill:#f1684e;stroke:#ffffff;stroke-linejoin:miter;"/>
   </g>
   <g id="patch_28">
    <path clip-path="url(#pbc50c5b7e1)" d="M 152.001848 185.398125 
L 156.412915 185.398125 
L 156.412915 139.223608 
L 152.001848 139.223608 
z
" style="fill:#f1684e;stroke:#ffffff;stroke-linejoin:miter;"/>
   </g>
   <g id="patch_29">
    <path clip-path="url(#pbc50c5b7e1)" d="M 156.412915 185.398125 
L 160.823982 185.398125 
L 160.823982 147.618974 
L 156.412915 147.618974 
z
" style="fill:#f1684e;stroke:#ffffff;stroke-linejoin:miter;"/>
   </g>
   <g id="patch_30">
    <path clip-path="url(#pbc50c5b7e1)" d="M 160.823982 185.398125 
L 165.235049 185.398125 
L 165.235049 147.618974 
L 160.823982 147.618974 
z
" style="fill:#f1684e;stroke:#ffffff;stroke-linejoin:miter;"/>
   </g>
   <g id="patch_31">
    <path clip-path="url(#pbc50c5b7e1)" d="M 165.235049 185.398125 
L 169.646117 185.398125 
L 169.646117 164.409708 
L 165.235049 164.409708 
z
" style="fill:#f1684e;stroke:#ffffff;stroke-linejoin:miter;"/>
   </g>
   <g id="patch_32">
    <path clip-path="url(#pbc50c5b7e1)" d="M 169.646117 185.398125 
L 174.057184 185.398125 
L 174.057184 156.014341 
L 169.646117 156.014341 
z
" style="fill:#f1684e;stroke:#ffffff;stroke-linejoin:miter;"/>
   </g>
   <g id="patch_33">
    <path clip-path="url(#pbc50c5b7e1)" d="M 174.057184 185.398125 
L 178.468251 185.398125 
L 178.468251 156.014341 
L 174.057184 156.014341 
z
" style="fill:#f1684e;stroke:#ffffff;stroke-linejoin:miter;"/>
   </g>
   <g id="patch_34">
    <path clip-path="url(#pbc50c5b7e1)" d="M 178.468251 185.398125 
L 182.879318 185.398125 
L 182.879318 151.816658 
L 178.468251 151.816658 
z
" style="fill:#f1684e;stroke:#ffffff;stroke-linejoin:miter;"/>
   </g>
   <g id="patch_35">
    <path clip-path="url(#pbc50c5b7e1)" d="M 182.879318 185.398125 
L 187.290385 185.398125 
L 187.290385 177.002758 
L 182.879318 177.002758 
z
" style="fill:#f1684e;stroke:#ffffff;stroke-linejoin:miter;"/>
   </g>
   <g id="patch_36">
    <path clip-path="url(#pbc50c5b7e1)" d="M 187.290385 185.398125 
L 191.701453 185.398125 
L 191.701453 151.816658 
L 187.290385 151.816658 
z
" style="fill:#f1684e;stroke:#ffffff;stroke-linejoin:miter;"/>
   </g>
   <g id="patch_37">
    <path clip-path="url(#pbc50c5b7e1)" d="M 191.701453 185.398125 
L 196.11252 185.398125 
L 196.11252 164.409708 
L 191.701453 164.409708 
z
" style="fill:#f1684e;stroke:#ffffff;stroke-linejoin:miter;"/>
   </g>
   <g id="patch_38">
    <path clip-path="url(#pbc50c5b7e1)" d="M 196.11252 185.398125 
L 200.523587 185.398125 
L 200.523587 168.607391 
L 196.11252 168.607391 
z
" style="fill:#f1684e;stroke:#ffffff;stroke-linejoin:miter;"/>
   </g>
   <g id="patch_39">
    <path clip-path="url(#pbc50c5b7e1)" d="M 200.523587 185.398125 
L 204.934654 185.398125 
L 204.934654 177.002758 
L 200.523587 177.002758 
z
" style="fill:#f1684e;stroke:#ffffff;stroke-linejoin:miter;"/>
   </g>
   <g id="patch_40">
    <path clip-path="url(#pbc50c5b7e1)" d="M 204.934654 185.398125 
L 209.345721 185.398125 
L 209.345721 181.200442 
L 204.934654 181.200442 
z
" style="fill:#f1684e;stroke:#ffffff;stroke-linejoin:miter;"/>
   </g>
   <g id="patch_41">
    <path clip-path="url(#pbc50c5b7e1)" d="M 209.345721 185.398125 
L 213.756789 185.398125 
L 213.756789 181.200442 
L 209.345721 181.200442 
z
" style="fill:#f1684e;stroke:#ffffff;stroke-linejoin:miter;"/>
   </g>
   <g id="patch_42">
    <path clip-path="url(#pbc50c5b7e1)" d="M 213.756789 185.398125 
L 218.167856 185.398125 
L 218.167856 185.398125 
L 213.756789 185.398125 
z
" style="fill:#f1684e;stroke:#ffffff;stroke-linejoin:miter;"/>
   </g>
   <g id="patch_43">
    <path clip-path="url(#pbc50c5b7e1)" d="M 218.167856 185.398125 
L 222.578923 185.398125 
L 222.578923 177.002758 
L 218.167856 177.002758 
z
" style="fill:#f1684e;stroke:#ffffff;stroke-linejoin:miter;"/>
   </g>
   <g id="patch_44">
    <path clip-path="url(#pbc50c5b7e1)" d="M 222.578923 185.398125 
L 226.98999 185.398125 
L 226.98999 177.002758 
L 222.578923 177.002758 
z
" style="fill:#f1684e;stroke:#ffffff;stroke-linejoin:miter;"/>
   </g>
   <g id="patch_45">
    <path clip-path="url(#pbc50c5b7e1)" d="M 226.98999 185.398125 
L 231.401057 185.398125 
L 231.401057 177.002758 
L 226.98999 177.002758 
z
" style="fill:#f1684e;stroke:#ffffff;stroke-linejoin:miter;"/>
   </g>
   <g id="patch_46">
    <path clip-path="url(#pbc50c5b7e1)" d="M 231.401057 185.398125 
L 235.812125 185.398125 
L 235.812125 177.002758 
L 231.401057 177.002758 
z
" style="fill:#f1684e;stroke:#ffffff;stroke-linejoin:miter;"/>
   </g>
   <g id="patch_47">
    <path clip-path="url(#pbc50c5b7e1)" d="M 235.812125 185.398125 
L 240.223192 185.398125 
L 240.223192 177.002758 
L 235.812125 177.002758 
z
" style="fill:#f1684e;stroke:#ffffff;stroke-linejoin:miter;"/>
   </g>
   <g id="patch_48">
    <path clip-path="url(#pbc50c5b7e1)" d="M 240.223192 185.398125 
L 244.634259 185.398125 
L 244.634259 181.200442 
L 240.223192 181.200442 
z
" style="fill:#f1684e;stroke:#ffffff;stroke-linejoin:miter;"/>
   </g>
   <g id="patch_49">
    <path clip-path="url(#pbc50c5b7e1)" d="M 244.634259 185.398125 
L 249.045326 185.398125 
L 249.045326 181.200442 
L 244.634259 181.200442 
z
" style="fill:#f1684e;stroke:#ffffff;stroke-linejoin:miter;"/>
   </g>
   <g id="patch_50">
    <path clip-path="url(#pbc50c5b7e1)" d="M 249.045326 185.398125 
L 253.456393 185.398125 
L 253.456393 185.398125 
L 249.045326 185.398125 
z
" style="fill:#f1684e;stroke:#ffffff;stroke-linejoin:miter;"/>
   </g>
   <g id="patch_51">
    <path clip-path="url(#pbc50c5b7e1)" d="M 253.456393 185.398125 
L 257.86746 185.398125 
L 257.86746 172.805075 
L 253.456393 172.805075 
z
" style="fill:#f1684e;stroke:#ffffff;stroke-linejoin:miter;"/>
   </g>
   <g id="patch_52">
    <path clip-path="url(#pbc50c5b7e1)" d="M 257.86746 185.398125 
L 262.278528 185.398125 
L 262.278528 118.235191 
L 257.86746 118.235191 
z
" style="fill:#f1684e;stroke:#ffffff;stroke-linejoin:miter;"/>
   </g>
   <g id="patch_53">
    <path d="M 30.6975 185.398125 
L 30.6975 22.318125 
" style="fill:none;stroke:#cccccc;stroke-linecap:square;stroke-linejoin:miter;stroke-width:1.25;"/>
   </g>
   <g id="patch_54">
    <path d="M 273.306196 185.398125 
L 273.306196 22.318125 
" style="fill:none;stroke:#cccccc;stroke-linecap:square;stroke-linejoin:miter;stroke-width:1.25;"/>
   </g>
   <g id="patch_55">
    <path d="M 30.6975 185.398125 
L 273.306196 185.398125 
" style="fill:none;stroke:#cccccc;stroke-linecap:square;stroke-linejoin:miter;stroke-width:1.25;"/>
   </g>
   <g id="patch_56">
    <path d="M 30.6975 22.318125 
L 273.306196 22.318125 
" style="fill:none;stroke:#cccccc;stroke-linecap:square;stroke-linejoin:miter;stroke-width:1.25;"/>
   </g>
   <g id="text_10">
    <!-- Price -->
    <defs>
     <path d="M 19.671875 64.796875 
L 19.671875 37.40625 
L 32.078125 37.40625 
Q 38.96875 37.40625 42.71875 40.96875 
Q 46.484375 44.53125 46.484375 51.125 
Q 46.484375 57.671875 42.71875 61.234375 
Q 38.96875 64.796875 32.078125 64.796875 
z
M 9.8125 72.90625 
L 32.078125 72.90625 
Q 44.34375 72.90625 50.609375 67.359375 
Q 56.890625 61.8125 56.890625 51.125 
Q 56.890625 40.328125 50.609375 34.8125 
Q 44.34375 29.296875 32.078125 29.296875 
L 19.671875 29.296875 
L 19.671875 0 
L 9.8125 0 
z
" id="DejaVuSans-80"/>
     <path d="M 41.109375 46.296875 
Q 39.59375 47.171875 37.8125 47.578125 
Q 36.03125 48 33.890625 48 
Q 26.265625 48 22.1875 43.046875 
Q 18.109375 38.09375 18.109375 28.8125 
L 18.109375 0 
L 9.078125 0 
L 9.078125 54.6875 
L 18.109375 54.6875 
L 18.109375 46.1875 
Q 20.953125 51.171875 25.484375 53.578125 
Q 30.03125 56 36.53125 56 
Q 37.453125 56 38.578125 55.875 
Q 39.703125 55.765625 41.0625 55.515625 
z
" id="DejaVuSans-114"/>
     <path d="M 9.421875 54.6875 
L 18.40625 54.6875 
L 18.40625 0 
L 9.421875 0 
z
M 9.421875 75.984375 
L 18.40625 75.984375 
L 18.40625 64.59375 
L 9.421875 64.59375 
z
" id="DejaVuSans-105"/>
     <path d="M 48.78125 52.59375 
L 48.78125 44.1875 
Q 44.96875 46.296875 41.140625 47.34375 
Q 37.3125 48.390625 33.40625 48.390625 
Q 24.65625 48.390625 19.8125 42.84375 
Q 14.984375 37.3125 14.984375 27.296875 
Q 14.984375 17.28125 19.8125 11.734375 
Q 24.65625 6.203125 33.40625 6.203125 
Q 37.3125 6.203125 41.140625 7.25 
Q 44.96875 8.296875 48.78125 10.40625 
L 48.78125 2.09375 
Q 45.015625 0.34375 40.984375 -0.53125 
Q 36.96875 -1.421875 32.421875 -1.421875 
Q 20.0625 -1.421875 12.78125 6.34375 
Q 5.515625 14.109375 5.515625 27.296875 
Q 5.515625 40.671875 12.859375 48.328125 
Q 20.21875 56 33.015625 56 
Q 37.15625 56 41.109375 55.140625 
Q 45.0625 54.296875 48.78125 52.59375 
z
" id="DejaVuSans-99"/>
     <path d="M 56.203125 29.59375 
L 56.203125 25.203125 
L 14.890625 25.203125 
Q 15.484375 15.921875 20.484375 11.0625 
Q 25.484375 6.203125 34.421875 6.203125 
Q 39.59375 6.203125 44.453125 7.46875 
Q 49.3125 8.734375 54.109375 11.28125 
L 54.109375 2.78125 
Q 49.265625 0.734375 44.1875 -0.34375 
Q 39.109375 -1.421875 33.890625 -1.421875 
Q 20.796875 -1.421875 13.15625 6.1875 
Q 5.515625 13.8125 5.515625 26.8125 
Q 5.515625 40.234375 12.765625 48.109375 
Q 20.015625 56 32.328125 56 
Q 43.359375 56 49.78125 48.890625 
Q 56.203125 41.796875 56.203125 29.59375 
z
M 47.21875 32.234375 
Q 47.125 39.59375 43.09375 43.984375 
Q 39.0625 48.390625 32.421875 48.390625 
Q 24.90625 48.390625 20.390625 44.140625 
Q 15.875 39.890625 15.1875 32.171875 
z
" id="DejaVuSans-101"/>
    </defs>
    <g style="fill:#262626;" transform="translate(137.260598 16.318125)scale(0.12 -0.12)">
     <use xlink:href="#DejaVuSans-80"/>
     <use x="60.287109" xlink:href="#DejaVuSans-114"/>
     <use x="101.400391" xlink:href="#DejaVuSans-105"/>
     <use x="129.183594" xlink:href="#DejaVuSans-99"/>
     <use x="184.164062" xlink:href="#DejaVuSans-101"/>
    </g>
   </g>
  </g>
  <g id="axes_2">
   <g id="patch_57">
    <path d="M 346.088804 185.398125 
L 588.6975 185.398125 
L 588.6975 22.318125 
L 346.088804 22.318125 
z
" style="fill:#ffffff;"/>
   </g>
   <g id="matplotlib.axis_3">
    <g id="xtick_6">
     <g id="line2d_10">
      <path clip-path="url(#pee5d82c011)" d="M 378.577561 185.398125 
L 378.577561 22.318125 
" style="fill:none;stroke:#cccccc;stroke-linecap:round;"/>
     </g>
     <g id="text_11">
      <!-- 2.0 -->
      <defs>
       <path d="M 10.6875 12.40625 
L 21 12.40625 
L 21 0 
L 10.6875 0 
z
" id="DejaVuSans-46"/>
      </defs>
      <g style="fill:#262626;" transform="translate(369.830842 203.256406)scale(0.11 -0.11)">
       <use xlink:href="#DejaVuSans-50"/>
       <use x="63.623047" xlink:href="#DejaVuSans-46"/>
       <use x="95.410156" xlink:href="#DejaVuSans-48"/>
      </g>
     </g>
    </g>
    <g id="xtick_7">
     <g id="line2d_11">
      <path clip-path="url(#pee5d82c011)" d="M 430.107126 185.398125 
L 430.107126 22.318125 
" style="fill:none;stroke:#cccccc;stroke-linecap:round;"/>
     </g>
     <g id="text_12">
      <!-- 2.5 -->
      <g style="fill:#262626;" transform="translate(421.360407 203.256406)scale(0.11 -0.11)">
       <use xlink:href="#DejaVuSans-50"/>
       <use x="63.623047" xlink:href="#DejaVuSans-46"/>
       <use x="95.410156" xlink:href="#DejaVuSans-53"/>
      </g>
     </g>
    </g>
    <g id="xtick_8">
     <g id="line2d_12">
      <path clip-path="url(#pee5d82c011)" d="M 481.636692 185.398125 
L 481.636692 22.318125 
" style="fill:none;stroke:#cccccc;stroke-linecap:round;"/>
     </g>
     <g id="text_13">
      <!-- 3.0 -->
      <g style="fill:#262626;" transform="translate(472.889973 203.256406)scale(0.11 -0.11)">
       <use xlink:href="#DejaVuSans-51"/>
       <use x="63.623047" xlink:href="#DejaVuSans-46"/>
       <use x="95.410156" xlink:href="#DejaVuSans-48"/>
      </g>
     </g>
    </g>
    <g id="xtick_9">
     <g id="line2d_13">
      <path clip-path="url(#pee5d82c011)" d="M 533.166257 185.398125 
L 533.166257 22.318125 
" style="fill:none;stroke:#cccccc;stroke-linecap:round;"/>
     </g>
     <g id="text_14">
      <!-- 3.5 -->
      <g style="fill:#262626;" transform="translate(524.419539 203.256406)scale(0.11 -0.11)">
       <use xlink:href="#DejaVuSans-51"/>
       <use x="63.623047" xlink:href="#DejaVuSans-46"/>
       <use x="95.410156" xlink:href="#DejaVuSans-53"/>
      </g>
     </g>
    </g>
    <g id="xtick_10">
     <g id="line2d_14">
      <path clip-path="url(#pee5d82c011)" d="M 584.695823 185.398125 
L 584.695823 22.318125 
" style="fill:none;stroke:#cccccc;stroke-linecap:round;"/>
     </g>
     <g id="text_15">
      <!-- 4.0 -->
      <g style="fill:#262626;" transform="translate(575.949104 203.256406)scale(0.11 -0.11)">
       <use xlink:href="#DejaVuSans-52"/>
       <use x="63.623047" xlink:href="#DejaVuSans-46"/>
       <use x="95.410156" xlink:href="#DejaVuSans-48"/>
      </g>
     </g>
    </g>
   </g>
   <g id="matplotlib.axis_4">
    <g id="ytick_5">
     <g id="line2d_15">
      <path clip-path="url(#pee5d82c011)" d="M 346.088804 185.398125 
L 588.6975 185.398125 
" style="fill:none;stroke:#cccccc;stroke-linecap:round;"/>
     </g>
     <g id="text_16">
      <!-- 0 -->
      <g style="fill:#262626;" transform="translate(329.590054 189.577266)scale(0.11 -0.11)">
       <use xlink:href="#DejaVuSans-48"/>
      </g>
     </g>
    </g>
    <g id="ytick_6">
     <g id="line2d_16">
      <path clip-path="url(#pee5d82c011)" d="M 346.088804 143.421291 
L 588.6975 143.421291 
" style="fill:none;stroke:#cccccc;stroke-linecap:round;"/>
     </g>
     <g id="text_17">
      <!-- 10 -->
      <g style="fill:#262626;" transform="translate(322.591304 147.600432)scale(0.11 -0.11)">
       <use xlink:href="#DejaVuSans-49"/>
       <use x="63.623047" xlink:href="#DejaVuSans-48"/>
      </g>
     </g>
    </g>
    <g id="ytick_7">
     <g id="line2d_17">
      <path clip-path="url(#pee5d82c011)" d="M 346.088804 101.444457 
L 588.6975 101.444457 
" style="fill:none;stroke:#cccccc;stroke-linecap:round;"/>
     </g>
     <g id="text_18">
      <!-- 20 -->
      <g style="fill:#262626;" transform="translate(322.591304 105.623598)scale(0.11 -0.11)">
       <use xlink:href="#DejaVuSans-50"/>
       <use x="63.623047" xlink:href="#DejaVuSans-48"/>
      </g>
     </g>
    </g>
    <g id="ytick_8">
     <g id="line2d_18">
      <path clip-path="url(#pee5d82c011)" d="M 346.088804 59.467623 
L 588.6975 59.467623 
" style="fill:none;stroke:#cccccc;stroke-linecap:round;"/>
     </g>
     <g id="text_19">
      <!-- 30 -->
      <g style="fill:#262626;" transform="translate(322.591304 63.646764)scale(0.11 -0.11)">
       <use xlink:href="#DejaVuSans-51"/>
       <use x="63.623047" xlink:href="#DejaVuSans-48"/>
      </g>
     </g>
    </g>
    <g id="text_20">
     <!-- Amount -->
     <defs>
      <path d="M 34.1875 63.1875 
L 20.796875 26.90625 
L 47.609375 26.90625 
z
M 28.609375 72.90625 
L 39.796875 72.90625 
L 67.578125 0 
L 57.328125 0 
L 50.6875 18.703125 
L 17.828125 18.703125 
L 11.1875 0 
L 0.78125 0 
z
" id="DejaVuSans-65"/>
      <path d="M 52 44.1875 
Q 55.375 50.25 60.0625 53.125 
Q 64.75 56 71.09375 56 
Q 79.640625 56 84.28125 50.015625 
Q 88.921875 44.046875 88.921875 33.015625 
L 88.921875 0 
L 79.890625 0 
L 79.890625 32.71875 
Q 79.890625 40.578125 77.09375 44.375 
Q 74.3125 48.1875 68.609375 48.1875 
Q 61.625 48.1875 57.5625 43.546875 
Q 53.515625 38.921875 53.515625 30.90625 
L 53.515625 0 
L 44.484375 0 
L 44.484375 32.71875 
Q 44.484375 40.625 41.703125 44.40625 
Q 38.921875 48.1875 33.109375 48.1875 
Q 26.21875 48.1875 22.15625 43.53125 
Q 18.109375 38.875 18.109375 30.90625 
L 18.109375 0 
L 9.078125 0 
L 9.078125 54.6875 
L 18.109375 54.6875 
L 18.109375 46.1875 
Q 21.1875 51.21875 25.484375 53.609375 
Q 29.78125 56 35.6875 56 
Q 41.65625 56 45.828125 52.96875 
Q 50 49.953125 52 44.1875 
z
" id="DejaVuSans-109"/>
      <path d="M 30.609375 48.390625 
Q 23.390625 48.390625 19.1875 42.75 
Q 14.984375 37.109375 14.984375 27.296875 
Q 14.984375 17.484375 19.15625 11.84375 
Q 23.34375 6.203125 30.609375 6.203125 
Q 37.796875 6.203125 41.984375 11.859375 
Q 46.1875 17.53125 46.1875 27.296875 
Q 46.1875 37.015625 41.984375 42.703125 
Q 37.796875 48.390625 30.609375 48.390625 
z
M 30.609375 56 
Q 42.328125 56 49.015625 48.375 
Q 55.71875 40.765625 55.71875 27.296875 
Q 55.71875 13.875 49.015625 6.21875 
Q 42.328125 -1.421875 30.609375 -1.421875 
Q 18.84375 -1.421875 12.171875 6.21875 
Q 5.515625 13.875 5.515625 27.296875 
Q 5.515625 40.765625 12.171875 48.375 
Q 18.84375 56 30.609375 56 
z
" id="DejaVuSans-111"/>
      <path d="M 8.5 21.578125 
L 8.5 54.6875 
L 17.484375 54.6875 
L 17.484375 21.921875 
Q 17.484375 14.15625 20.5 10.265625 
Q 23.53125 6.390625 29.59375 6.390625 
Q 36.859375 6.390625 41.078125 11.03125 
Q 45.3125 15.671875 45.3125 23.6875 
L 45.3125 54.6875 
L 54.296875 54.6875 
L 54.296875 0 
L 45.3125 0 
L 45.3125 8.40625 
Q 42.046875 3.421875 37.71875 1 
Q 33.40625 -1.421875 27.6875 -1.421875 
Q 18.265625 -1.421875 13.375 4.4375 
Q 8.5 10.296875 8.5 21.578125 
z
M 31.109375 56 
z
" id="DejaVuSans-117"/>
      <path d="M 54.890625 33.015625 
L 54.890625 0 
L 45.90625 0 
L 45.90625 32.71875 
Q 45.90625 40.484375 42.875 44.328125 
Q 39.84375 48.1875 33.796875 48.1875 
Q 26.515625 48.1875 22.3125 43.546875 
Q 18.109375 38.921875 18.109375 30.90625 
L 18.109375 0 
L 9.078125 0 
L 9.078125 54.6875 
L 18.109375 54.6875 
L 18.109375 46.1875 
Q 21.34375 51.125 25.703125 53.5625 
Q 30.078125 56 35.796875 56 
Q 45.21875 56 50.046875 50.171875 
Q 54.890625 44.34375 54.890625 33.015625 
z
" id="DejaVuSans-110"/>
      <path d="M 18.3125 70.21875 
L 18.3125 54.6875 
L 36.8125 54.6875 
L 36.8125 47.703125 
L 18.3125 47.703125 
L 18.3125 18.015625 
Q 18.3125 11.328125 20.140625 9.421875 
Q 21.96875 7.515625 27.59375 7.515625 
L 36.8125 7.515625 
L 36.8125 0 
L 27.59375 0 
Q 17.1875 0 13.234375 3.875 
Q 9.28125 7.765625 9.28125 18.015625 
L 9.28125 47.703125 
L 2.6875 47.703125 
L 2.6875 54.6875 
L 9.28125 54.6875 
L 9.28125 70.21875 
z
" id="DejaVuSans-116"/>
     </defs>
     <g style="fill:#262626;" transform="translate(316.095679 127.435313)rotate(-90)scale(0.12 -0.12)">
      <use xlink:href="#DejaVuSans-65"/>
      <use x="68.408203" xlink:href="#DejaVuSans-109"/>
      <use x="165.820312" xlink:href="#DejaVuSans-111"/>
      <use x="227.001953" xlink:href="#DejaVuSans-117"/>
      <use x="290.380859" xlink:href="#DejaVuSans-110"/>
      <use x="353.759766" xlink:href="#DejaVuSans-116"/>
     </g>
    </g>
   </g>
   <g id="patch_58">
    <path clip-path="url(#pee5d82c011)" d="M 357.116472 185.398125 
L 361.52754 185.398125 
L 361.52754 177.002758 
L 357.116472 177.002758 
z
" style="fill:#f1684e;stroke:#ffffff;stroke-linejoin:miter;"/>
   </g>
   <g id="patch_59">
    <path clip-path="url(#pee5d82c011)" d="M 361.52754 185.398125 
L 365.938607 185.398125 
L 365.938607 185.398125 
L 361.52754 185.398125 
z
" style="fill:#f1684e;stroke:#ffffff;stroke-linejoin:miter;"/>
   </g>
   <g id="patch_60">
    <path clip-path="url(#pee5d82c011)" d="M 365.938607 185.398125 
L 370.349674 185.398125 
L 370.349674 181.200442 
L 365.938607 181.200442 
z
" style="fill:#f1684e;stroke:#ffffff;stroke-linejoin:miter;"/>
   </g>
   <g id="patch_61">
    <path clip-path="url(#pee5d82c011)" d="M 370.349674 185.398125 
L 374.760741 185.398125 
L 374.760741 185.398125 
L 370.349674 185.398125 
z
" style="fill:#f1684e;stroke:#ffffff;stroke-linejoin:miter;"/>
   </g>
   <g id="patch_62">
    <path clip-path="url(#pee5d82c011)" d="M 374.760741 185.398125 
L 379.171808 185.398125 
L 379.171808 181.200442 
L 374.760741 181.200442 
z
" style="fill:#f1684e;stroke:#ffffff;stroke-linejoin:miter;"/>
   </g>
   <g id="patch_63">
    <path clip-path="url(#pee5d82c011)" d="M 379.171808 185.398125 
L 383.582875 185.398125 
L 383.582875 185.398125 
L 379.171808 185.398125 
z
" style="fill:#f1684e;stroke:#ffffff;stroke-linejoin:miter;"/>
   </g>
   <g id="patch_64">
    <path clip-path="url(#pee5d82c011)" d="M 383.582875 185.398125 
L 387.993943 185.398125 
L 387.993943 177.002758 
L 383.582875 177.002758 
z
" style="fill:#f1684e;stroke:#ffffff;stroke-linejoin:miter;"/>
   </g>
   <g id="patch_65">
    <path clip-path="url(#pee5d82c011)" d="M 387.993943 185.398125 
L 392.40501 185.398125 
L 392.40501 168.607391 
L 387.993943 168.607391 
z
" style="fill:#f1684e;stroke:#ffffff;stroke-linejoin:miter;"/>
   </g>
   <g id="patch_66">
    <path clip-path="url(#pee5d82c011)" d="M 392.40501 185.398125 
L 396.816077 185.398125 
L 396.816077 181.200442 
L 392.40501 181.200442 
z
" style="fill:#f1684e;stroke:#ffffff;stroke-linejoin:miter;"/>
   </g>
   <g id="patch_67">
    <path clip-path="url(#pee5d82c011)" d="M 396.816077 185.398125 
L 401.227144 185.398125 
L 401.227144 181.200442 
L 396.816077 181.200442 
z
" style="fill:#f1684e;stroke:#ffffff;stroke-linejoin:miter;"/>
   </g>
   <g id="patch_68">
    <path clip-path="url(#pee5d82c011)" d="M 401.227144 185.398125 
L 405.638211 185.398125 
L 405.638211 160.212025 
L 401.227144 160.212025 
z
" style="fill:#f1684e;stroke:#ffffff;stroke-linejoin:miter;"/>
   </g>
   <g id="patch_69">
    <path clip-path="url(#pee5d82c011)" d="M 405.638211 185.398125 
L 410.049279 185.398125 
L 410.049279 172.805075 
L 405.638211 172.805075 
z
" style="fill:#f1684e;stroke:#ffffff;stroke-linejoin:miter;"/>
   </g>
   <g id="patch_70">
    <path clip-path="url(#pee5d82c011)" d="M 410.049279 185.398125 
L 414.460346 185.398125 
L 414.460346 185.398125 
L 410.049279 185.398125 
z
" style="fill:#f1684e;stroke:#ffffff;stroke-linejoin:miter;"/>
   </g>
   <g id="patch_71">
    <path clip-path="url(#pee5d82c011)" d="M 414.460346 185.398125 
L 418.871413 185.398125 
L 418.871413 172.805075 
L 414.460346 172.805075 
z
" style="fill:#f1684e;stroke:#ffffff;stroke-linejoin:miter;"/>
   </g>
   <g id="patch_72">
    <path clip-path="url(#pee5d82c011)" d="M 418.871413 185.398125 
L 423.28248 185.398125 
L 423.28248 164.409708 
L 418.871413 164.409708 
z
" style="fill:#f1684e;stroke:#ffffff;stroke-linejoin:miter;"/>
   </g>
   <g id="patch_73">
    <path clip-path="url(#pee5d82c011)" d="M 423.28248 185.398125 
L 427.693547 185.398125 
L 427.693547 164.409708 
L 423.28248 164.409708 
z
" style="fill:#f1684e;stroke:#ffffff;stroke-linejoin:miter;"/>
   </g>
   <g id="patch_74">
    <path clip-path="url(#pee5d82c011)" d="M 427.693547 185.398125 
L 432.104615 185.398125 
L 432.104615 177.002758 
L 427.693547 177.002758 
z
" style="fill:#f1684e;stroke:#ffffff;stroke-linejoin:miter;"/>
   </g>
   <g id="patch_75">
    <path clip-path="url(#pee5d82c011)" d="M 432.104615 185.398125 
L 436.515682 185.398125 
L 436.515682 156.014341 
L 432.104615 156.014341 
z
" style="fill:#f1684e;stroke:#ffffff;stroke-linejoin:miter;"/>
   </g>
   <g id="patch_76">
    <path clip-path="url(#pee5d82c011)" d="M 436.515682 185.398125 
L 440.926749 185.398125 
L 440.926749 168.607391 
L 436.515682 168.607391 
z
" style="fill:#f1684e;stroke:#ffffff;stroke-linejoin:miter;"/>
   </g>
   <g id="patch_77">
    <path clip-path="url(#pee5d82c011)" d="M 440.926749 185.398125 
L 445.337816 185.398125 
L 445.337816 143.421291 
L 440.926749 143.421291 
z
" style="fill:#f1684e;stroke:#ffffff;stroke-linejoin:miter;"/>
   </g>
   <g id="patch_78">
    <path clip-path="url(#pee5d82c011)" d="M 445.337816 185.398125 
L 449.748883 185.398125 
L 449.748883 135.025924 
L 445.337816 135.025924 
z
" style="fill:#f1684e;stroke:#ffffff;stroke-linejoin:miter;"/>
   </g>
   <g id="patch_79">
    <path clip-path="url(#pee5d82c011)" d="M 449.748883 185.398125 
L 454.159951 185.398125 
L 454.159951 126.630557 
L 449.748883 126.630557 
z
" style="fill:#f1684e;stroke:#ffffff;stroke-linejoin:miter;"/>
   </g>
   <g id="patch_80">
    <path clip-path="url(#pee5d82c011)" d="M 454.159951 185.398125 
L 458.571018 185.398125 
L 458.571018 126.630557 
L 454.159951 126.630557 
z
" style="fill:#f1684e;stroke:#ffffff;stroke-linejoin:miter;"/>
   </g>
   <g id="patch_81">
    <path clip-path="url(#pee5d82c011)" d="M 458.571018 185.398125 
L 462.982085 185.398125 
L 462.982085 130.828241 
L 458.571018 130.828241 
z
" style="fill:#f1684e;stroke:#ffffff;stroke-linejoin:miter;"/>
   </g>
   <g id="patch_82">
    <path clip-path="url(#pee5d82c011)" d="M 462.982085 185.398125 
L 467.393152 185.398125 
L 467.393152 151.816658 
L 462.982085 151.816658 
z
" style="fill:#f1684e;stroke:#ffffff;stroke-linejoin:miter;"/>
   </g>
   <g id="patch_83">
    <path clip-path="url(#pee5d82c011)" d="M 467.393152 185.398125 
L 471.804219 185.398125 
L 471.804219 122.432874 
L 467.393152 122.432874 
z
" style="fill:#f1684e;stroke:#ffffff;stroke-linejoin:miter;"/>
   </g>
   <g id="patch_84">
    <path clip-path="url(#pee5d82c011)" d="M 471.804219 185.398125 
L 476.215287 185.398125 
L 476.215287 118.235191 
L 471.804219 118.235191 
z
" style="fill:#f1684e;stroke:#ffffff;stroke-linejoin:miter;"/>
   </g>
   <g id="patch_85">
    <path clip-path="url(#pee5d82c011)" d="M 476.215287 185.398125 
L 480.626354 185.398125 
L 480.626354 101.444457 
L 476.215287 101.444457 
z
" style="fill:#f1684e;stroke:#ffffff;stroke-linejoin:miter;"/>
   </g>
   <g id="patch_86">
    <path clip-path="url(#pee5d82c011)" d="M 480.626354 185.398125 
L 485.037421 185.398125 
L 485.037421 42.676889 
L 480.626354 42.676889 
z
" style="fill:#f1684e;stroke:#ffffff;stroke-linejoin:miter;"/>
   </g>
   <g id="patch_87">
    <path clip-path="url(#pee5d82c011)" d="M 485.037421 185.398125 
L 489.448488 185.398125 
L 489.448488 34.281523 
L 485.037421 34.281523 
z
" style="fill:#f1684e;stroke:#ffffff;stroke-linejoin:miter;"/>
   </g>
   <g id="patch_88">
    <path clip-path="url(#pee5d82c011)" d="M 489.448488 185.398125 
L 493.859555 185.398125 
L 493.859555 76.258357 
L 489.448488 76.258357 
z
" style="fill:#f1684e;stroke:#ffffff;stroke-linejoin:miter;"/>
   </g>
   <g id="patch_89">
    <path clip-path="url(#pee5d82c011)" d="M 493.859555 185.398125 
L 498.270623 185.398125 
L 498.270623 30.083839 
L 493.859555 30.083839 
z
" style="fill:#f1684e;stroke:#ffffff;stroke-linejoin:miter;"/>
   </g>
   <g id="patch_90">
    <path clip-path="url(#pee5d82c011)" d="M 498.270623 185.398125 
L 502.68169 185.398125 
L 502.68169 42.676889 
L 498.270623 42.676889 
z
" style="fill:#f1684e;stroke:#ffffff;stroke-linejoin:miter;"/>
   </g>
   <g id="patch_91">
    <path clip-path="url(#pee5d82c011)" d="M 502.68169 185.398125 
L 507.092757 185.398125 
L 507.092757 42.676889 
L 502.68169 42.676889 
z
" style="fill:#f1684e;stroke:#ffffff;stroke-linejoin:miter;"/>
   </g>
   <g id="patch_92">
    <path clip-path="url(#pee5d82c011)" d="M 507.092757 185.398125 
L 511.503824 185.398125 
L 511.503824 122.432874 
L 507.092757 122.432874 
z
" style="fill:#f1684e;stroke:#ffffff;stroke-linejoin:miter;"/>
   </g>
   <g id="patch_93">
    <path clip-path="url(#pee5d82c011)" d="M 511.503824 185.398125 
L 515.914891 185.398125 
L 515.914891 147.618974 
L 511.503824 147.618974 
z
" style="fill:#f1684e;stroke:#ffffff;stroke-linejoin:miter;"/>
   </g>
   <g id="patch_94">
    <path clip-path="url(#pee5d82c011)" d="M 515.914891 185.398125 
L 520.325958 185.398125 
L 520.325958 139.223608 
L 515.914891 139.223608 
z
" style="fill:#f1684e;stroke:#ffffff;stroke-linejoin:miter;"/>
   </g>
   <g id="patch_95">
    <path clip-path="url(#pee5d82c011)" d="M 520.325958 185.398125 
L 524.737026 185.398125 
L 524.737026 135.025924 
L 520.325958 135.025924 
z
" style="fill:#f1684e;stroke:#ffffff;stroke-linejoin:miter;"/>
   </g>
   <g id="patch_96">
    <path clip-path="url(#pee5d82c011)" d="M 524.737026 185.398125 
L 529.148093 185.398125 
L 529.148093 135.025924 
L 524.737026 135.025924 
z
" style="fill:#f1684e;stroke:#ffffff;stroke-linejoin:miter;"/>
   </g>
   <g id="patch_97">
    <path clip-path="url(#pee5d82c011)" d="M 529.148093 185.398125 
L 533.55916 185.398125 
L 533.55916 139.223608 
L 529.148093 139.223608 
z
" style="fill:#f1684e;stroke:#ffffff;stroke-linejoin:miter;"/>
   </g>
   <g id="patch_98">
    <path clip-path="url(#pee5d82c011)" d="M 533.55916 185.398125 
L 537.970227 185.398125 
L 537.970227 135.025924 
L 533.55916 135.025924 
z
" style="fill:#f1684e;stroke:#ffffff;stroke-linejoin:miter;"/>
   </g>
   <g id="patch_99">
    <path clip-path="url(#pee5d82c011)" d="M 537.970227 185.398125 
L 542.381294 185.398125 
L 542.381294 151.816658 
L 537.970227 151.816658 
z
" style="fill:#f1684e;stroke:#ffffff;stroke-linejoin:miter;"/>
   </g>
   <g id="patch_100">
    <path clip-path="url(#pee5d82c011)" d="M 542.381294 185.398125 
L 546.792362 185.398125 
L 546.792362 151.816658 
L 542.381294 151.816658 
z
" style="fill:#f1684e;stroke:#ffffff;stroke-linejoin:miter;"/>
   </g>
   <g id="patch_101">
    <path clip-path="url(#pee5d82c011)" d="M 546.792362 185.398125 
L 551.203429 185.398125 
L 551.203429 164.409708 
L 546.792362 164.409708 
z
" style="fill:#f1684e;stroke:#ffffff;stroke-linejoin:miter;"/>
   </g>
   <g id="patch_102">
    <path clip-path="url(#pee5d82c011)" d="M 551.203429 185.398125 
L 555.614496 185.398125 
L 555.614496 177.002758 
L 551.203429 177.002758 
z
" style="fill:#f1684e;stroke:#ffffff;stroke-linejoin:miter;"/>
   </g>
   <g id="patch_103">
    <path clip-path="url(#pee5d82c011)" d="M 555.614496 185.398125 
L 560.025563 185.398125 
L 560.025563 177.002758 
L 555.614496 177.002758 
z
" style="fill:#f1684e;stroke:#ffffff;stroke-linejoin:miter;"/>
   </g>
   <g id="patch_104">
    <path clip-path="url(#pee5d82c011)" d="M 560.025563 185.398125 
L 564.43663 185.398125 
L 564.43663 164.409708 
L 560.025563 164.409708 
z
" style="fill:#f1684e;stroke:#ffffff;stroke-linejoin:miter;"/>
   </g>
   <g id="patch_105">
    <path clip-path="url(#pee5d82c011)" d="M 564.43663 185.398125 
L 568.847698 185.398125 
L 568.847698 172.805075 
L 564.43663 172.805075 
z
" style="fill:#f1684e;stroke:#ffffff;stroke-linejoin:miter;"/>
   </g>
   <g id="patch_106">
    <path clip-path="url(#pee5d82c011)" d="M 568.847698 185.398125 
L 573.258765 185.398125 
L 573.258765 177.002758 
L 568.847698 177.002758 
z
" style="fill:#f1684e;stroke:#ffffff;stroke-linejoin:miter;"/>
   </g>
   <g id="patch_107">
    <path clip-path="url(#pee5d82c011)" d="M 573.258765 185.398125 
L 577.669832 185.398125 
L 577.669832 105.64214 
L 573.258765 105.64214 
z
" style="fill:#f1684e;stroke:#ffffff;stroke-linejoin:miter;"/>
   </g>
   <g id="patch_108">
    <path d="M 346.088804 185.398125 
L 346.088804 22.318125 
" style="fill:none;stroke:#cccccc;stroke-linecap:square;stroke-linejoin:miter;stroke-width:1.25;"/>
   </g>
   <g id="patch_109">
    <path d="M 588.6975 185.398125 
L 588.6975 22.318125 
" style="fill:none;stroke:#cccccc;stroke-linecap:square;stroke-linejoin:miter;stroke-width:1.25;"/>
   </g>
   <g id="patch_110">
    <path d="M 346.088804 185.398125 
L 588.6975 185.398125 
" style="fill:none;stroke:#cccccc;stroke-linecap:square;stroke-linejoin:miter;stroke-width:1.25;"/>
   </g>
   <g id="patch_111">
    <path d="M 346.088804 22.318125 
L 588.6975 22.318125 
" style="fill:none;stroke:#cccccc;stroke-linecap:square;stroke-linejoin:miter;stroke-width:1.25;"/>
   </g>
   <g id="text_21">
    <!-- log(Price + 1) -->
    <defs>
     <path d="M 9.421875 75.984375 
L 18.40625 75.984375 
L 18.40625 0 
L 9.421875 0 
z
" id="DejaVuSans-108"/>
     <path d="M 45.40625 27.984375 
Q 45.40625 37.75 41.375 43.109375 
Q 37.359375 48.484375 30.078125 48.484375 
Q 22.859375 48.484375 18.828125 43.109375 
Q 14.796875 37.75 14.796875 27.984375 
Q 14.796875 18.265625 18.828125 12.890625 
Q 22.859375 7.515625 30.078125 7.515625 
Q 37.359375 7.515625 41.375 12.890625 
Q 45.40625 18.265625 45.40625 27.984375 
z
M 54.390625 6.78125 
Q 54.390625 -7.171875 48.1875 -13.984375 
Q 42 -20.796875 29.203125 -20.796875 
Q 24.46875 -20.796875 20.265625 -20.09375 
Q 16.0625 -19.390625 12.109375 -17.921875 
L 12.109375 -9.1875 
Q 16.0625 -11.328125 19.921875 -12.34375 
Q 23.78125 -13.375 27.78125 -13.375 
Q 36.625 -13.375 41.015625 -8.765625 
Q 45.40625 -4.15625 45.40625 5.171875 
L 45.40625 9.625 
Q 42.625 4.78125 38.28125 2.390625 
Q 33.9375 0 27.875 0 
Q 17.828125 0 11.671875 7.65625 
Q 5.515625 15.328125 5.515625 27.984375 
Q 5.515625 40.671875 11.671875 48.328125 
Q 17.828125 56 27.875 56 
Q 33.9375 56 38.28125 53.609375 
Q 42.625 51.21875 45.40625 46.390625 
L 45.40625 54.6875 
L 54.390625 54.6875 
z
" id="DejaVuSans-103"/>
     <path d="M 31 75.875 
Q 24.46875 64.65625 21.28125 53.65625 
Q 18.109375 42.671875 18.109375 31.390625 
Q 18.109375 20.125 21.3125 9.0625 
Q 24.515625 -2 31 -13.1875 
L 23.1875 -13.1875 
Q 15.875 -1.703125 12.234375 9.375 
Q 8.59375 20.453125 8.59375 31.390625 
Q 8.59375 42.28125 12.203125 53.3125 
Q 15.828125 64.359375 23.1875 75.875 
z
" id="DejaVuSans-40"/>
     <path id="DejaVuSans-32"/>
     <path d="M 46 62.703125 
L 46 35.5 
L 73.1875 35.5 
L 73.1875 27.203125 
L 46 27.203125 
L 46 0 
L 37.796875 0 
L 37.796875 27.203125 
L 10.59375 27.203125 
L 10.59375 35.5 
L 37.796875 35.5 
L 37.796875 62.703125 
z
" id="DejaVuSans-43"/>
     <path d="M 8.015625 75.875 
L 15.828125 75.875 
Q 23.140625 64.359375 26.78125 53.3125 
Q 30.421875 42.28125 30.421875 31.390625 
Q 30.421875 20.453125 26.78125 9.375 
Q 23.140625 -1.703125 15.828125 -13.1875 
L 8.015625 -13.1875 
Q 14.5 -2 17.703125 9.0625 
Q 20.90625 20.125 20.90625 31.390625 
Q 20.90625 42.671875 17.703125 53.65625 
Q 14.5 64.65625 8.015625 75.875 
z
" id="DejaVuSans-41"/>
    </defs>
    <g style="fill:#262626;" transform="translate(426.163777 16.318125)scale(0.12 -0.12)">
     <use xlink:href="#DejaVuSans-108"/>
     <use x="27.783203" xlink:href="#DejaVuSans-111"/>
     <use x="88.964844" xlink:href="#DejaVuSans-103"/>
     <use x="152.441406" xlink:href="#DejaVuSans-40"/>
     <use x="191.455078" xlink:href="#DejaVuSans-80"/>
     <use x="251.742188" xlink:href="#DejaVuSans-114"/>
     <use x="292.855469" xlink:href="#DejaVuSans-105"/>
     <use x="320.638672" xlink:href="#DejaVuSans-99"/>
     <use x="375.619141" xlink:href="#DejaVuSans-101"/>
     <use x="437.142578" xlink:href="#DejaVuSans-32"/>
     <use x="468.929688" xlink:href="#DejaVuSans-43"/>
     <use x="552.71875" xlink:href="#DejaVuSans-32"/>
     <use x="584.505859" xlink:href="#DejaVuSans-49"/>
     <use x="648.128906" xlink:href="#DejaVuSans-41"/>
    </g>
   </g>
  </g>
 </g>
 <defs>
  <clipPath id="pbc50c5b7e1">
   <rect height="163.08" width="242.608696" x="30.6975" y="22.318125"/>
  </clipPath>
  <clipPath id="pee5d82c011">
   <rect height="163.08" width="242.608696" x="346.088804" y="22.318125"/>
  </clipPath>
 </defs>
</svg>
